<svg xmlns="http://www.w3.org/2000/svg" width="18.589" height="18.589" viewBox="0 0 18.589 18.589">
  <g id="Group_618" data-name="Group 618" transform="translate(-1097.847 -91.065)">
    <g id="Group_617" data-name="Group 617">
      <path id="Path_1324" data-name="Path 1324" d="M1107.141,91.065a9.294,9.294,0,1,0,9.3,9.294A9.294,9.294,0,0,0,1107.141,91.065Zm0,17.039a7.745,7.745,0,1,1,7.746-7.745A7.745,7.745,0,0,1,1107.141,108.1Z" fill="#f15a24"/>
      <path id="Path_1325" data-name="Path 1325" d="M1107.141,98.81h-.774a.775.775,0,1,0,0,1.549h.774v4.647a.775.775,0,0,0,1.55,0v-4.647A1.549,1.549,0,0,0,1107.141,98.81Z" fill="#f15a24"/>
      <circle id="Ellipse_70" data-name="Ellipse 70" cx="1.162" cy="1.162" r="1.162" transform="translate(1105.98 94.937)" fill="#f15a24"/>
    </g>
  </g>
</svg>
