<svg xmlns="http://www.w3.org/2000/svg" width="126.696" height="38.125" viewBox="0 0 126.696 38.125">
  <g id="Group_604" data-name="Group 604" transform="translate(-358.005 -981.185)">
    <path id="Path_1175" data-name="Path 1175" d="M376.618,999.721a7.525,7.525,0,0,0-.489-.683,4.974,4.974,0,0,1-1.055-3.215c.024-2.264.008-4.531.012-6.794a18.911,18.911,0,0,0-.138-2.713,5.213,5.213,0,0,0-2.05-3.559,7.818,7.818,0,0,0-3.354-1.371c-.406-.079-.821-.134-1.228-.2h-1.931c-.032.071-.1.047-.15.051a11.337,11.337,0,0,0-2.568.5,6.823,6.823,0,0,0-4.976,5.383.689.689,0,0,0,.592.885c1.228.142,2.461.265,3.689.4a.608.608,0,0,0,.561-.249,1.133,1.133,0,0,0,.225-.513,2.7,2.7,0,0,1,.462-1.055,3.2,3.2,0,0,1,3.14-1.2,2.246,2.246,0,0,1,2.113,1.928,11.453,11.453,0,0,1,.1,2.267c0,.146-.107.142-.2.154-1.055.119-2.113.221-3.168.356a14.618,14.618,0,0,0-3.9.94,6.541,6.541,0,0,0-3.918,4.095,7.616,7.616,0,0,0-.016,4.693,5.018,5.018,0,0,0,2.4,3.013,5.814,5.814,0,0,0,2.5.719,8.833,8.833,0,0,0,3.958-.517,8.947,8.947,0,0,0,2.792-1.971c.336-.328.344-.336.6.071a8.953,8.953,0,0,0,1.876,2.121.774.774,0,0,0,.9.083,1.935,1.935,0,0,0,.32-.233c.909-.782,1.817-1.572,2.73-2.358A.7.7,0,0,0,376.618,999.721Zm-7.046-5.5a8.061,8.061,0,0,1-.363,2.824,4.273,4.273,0,0,1-1.355,1.967,2.692,2.692,0,0,1-2.129.585,2.014,2.014,0,0,1-1.686-1.32,3.8,3.8,0,0,1,.446-3.819,3.839,3.839,0,0,1,2.239-1.307,11.235,11.235,0,0,1,2.647-.3c.173,0,.209.06.2.214C369.568,993.449,369.572,993.836,369.572,994.223Z" fill="#58595b"/>
    <path id="Path_1176" data-name="Path 1176" d="M427.965,999.638c-.143-.213-.293-.419-.451-.62a4.962,4.962,0,0,1-1.046-3.2c.016-2.272.008-4.547.008-6.822a19.5,19.5,0,0,0-.115-2.591,5.245,5.245,0,0,0-2.472-3.938,8.3,8.3,0,0,0-2.927-1.086c-.438-.079-.889-.134-1.331-.2h-1.88a1.576,1.576,0,0,1-.573.1,9.786,9.786,0,0,0-4.029,1.323,6.587,6.587,0,0,0-3.065,4.55.675.675,0,0,0,.609.849c1.212.138,2.425.265,3.637.4a.661.661,0,0,0,.652-.316,1.6,1.6,0,0,0,.2-.529,2.606,2.606,0,0,1,.584-1.157,3.259,3.259,0,0,1,3.006-1.016,2.321,2.321,0,0,1,2.149,2.185c.078.632.035,1.268.055,1.9.008.189-.052.252-.241.272q-1.38.131-2.753.3a17.293,17.293,0,0,0-3.879.834,6.649,6.649,0,0,0-4.206,3.941,7.5,7.5,0,0,0-.051,5.226,4.947,4.947,0,0,0,3.009,3.108,7.162,7.162,0,0,0,2.911.427,7.427,7.427,0,0,0,3.693-.956,10.657,10.657,0,0,0,2.09-1.69c.153-.158.232-.182.363.031a8.929,8.929,0,0,0,1.979,2.291.792.792,0,0,0,.92.079,2.193,2.193,0,0,0,.3-.221c.9-.778,1.8-1.56,2.71-2.346A.74.74,0,0,0,427.965,999.638Zm-6.995-5.293a7.607,7.607,0,0,1-.352,2.67,4.188,4.188,0,0,1-1.5,2.1,2.674,2.674,0,0,1-1.892.5A2.085,2.085,0,0,1,415.4,998.2a3.918,3.918,0,0,1,.162-3.254,3.539,3.539,0,0,1,2.354-1.738,10.572,10.572,0,0,1,2.883-.36c.146,0,.178.048.178.182C420.966,993.409,420.97,993.789,420.97,994.345Z" fill="#333"/>
    <path id="Path_1177" data-name="Path 1177" d="M484.7,1002.787a.955.955,0,0,1-.973.521c-1.17-.016-2.341-.005-3.512-.006-.639,0-.9-.263-.9-.9q0-6.153,0-12.3a7.285,7.285,0,0,0-.254-2.052,2.1,2.1,0,0,0-1.613-1.659,2.341,2.341,0,0,0-2.391.832,4.545,4.545,0,0,0-.895,2.114,10.152,10.152,0,0,0-.184,2.087c-.006,3.649-.014,7.3,0,10.946a.847.847,0,0,1-.953.943c-1.171-.021-2.342-.006-3.513-.007-.651,0-.911-.262-.912-.915q0-9.848-.008-19.693c0-.62.262-.89.885-.892q1.682-.006,3.364,0c.581,0,.836.267.836.85,0,.84,0,1.68,0,2.52,0,.084-.038.18.045.259a.874.874,0,0,0,.178-.348,8.8,8.8,0,0,1,.982-1.737,4.59,4.59,0,0,1,3.081-1.876,6.094,6.094,0,0,1,3.648.441,5,5,0,0,1,2.785,3.762,14.218,14.218,0,0,1,.253,2.057c0,.06-.026.134.047.178v.346a2.623,2.623,0,0,0,0,.791Z" fill="#333"/>
    <path id="Path_1178" data-name="Path 1178" d="M484.7,989.045a1.333,1.333,0,0,1,0-.791Z" fill="#333"/>
    <path id="Path_1179" data-name="Path 1179" d="M395.065,985.088a5.816,5.816,0,0,1,1.443-2.206,5.659,5.659,0,0,1,4.537-1.47,5.4,5.4,0,0,1,3.68,1.8,5.145,5.145,0,0,1,1.2,2.9,16.126,16.126,0,0,1,.1,2.1q-.015,7.082-.027,14.162a1.305,1.305,0,0,1-.043.44.736.736,0,0,1-.731.487c-1.279.007-2.557.01-3.835,0a.736.736,0,0,1-.763-.838q0-6.141.007-12.283a8.961,8.961,0,0,0-.15-2.138,1.942,1.942,0,0,0-1.949-1.612,2.679,2.679,0,0,0-2.9,2.519,15.367,15.367,0,0,0-.136,2.217q0,5.61,0,11.221c0,.658-.254.917-.907.918q-1.794,0-3.588,0c-.6,0-.872-.273-.872-.879q0-5.883.008-11.764a10.58,10.58,0,0,0-.191-2.383c-.02-.088-.041-.177-.068-.263a2.165,2.165,0,0,0-2.578-1.619,2.234,2.234,0,0,0-1.86,1.467,7.393,7.393,0,0,0-.432,2.517c-.014.28-.012.561-.012.841q0,5.6,0,11.2c0,.616-.269.887-.891.888q-1.806,0-3.612,0a.764.764,0,0,1-.876-.879V982.7c0-.618.268-.9.884-.9q1.7-.008,3.39,0c.582,0,.854.286.854.875,0,.8,0,1.595,0,2.412.128-.04.127-.142.158-.216a5.213,5.213,0,0,1,5.7-3.466,4.905,4.905,0,0,1,4.075,2.9C394.8,984.549,394.922,984.8,395.065,985.088Z" fill="#333"/>
    <path id="Path_1180" data-name="Path 1180" d="M464.752,987.291a9.164,9.164,0,0,0-2.5-3.855,7.875,7.875,0,0,0-5.095-2.046,8.07,8.07,0,0,0-8.026,4.949,14.255,14.255,0,0,0-1.248,6.047,15.25,15.25,0,0,0,1.047,5.866,9.285,9.285,0,0,0,2.548,3.622,7.692,7.692,0,0,0,4.553,1.82,8.063,8.063,0,0,0,5.3-1.374,9.312,9.312,0,0,0,3.571-4.906A15.342,15.342,0,0,0,464.752,987.291Zm-4.941,7.58a8.67,8.67,0,0,1-.647,2.974,2.659,2.659,0,0,1-1.758,1.639,2.3,2.3,0,0,1-2.674-1.039,6.609,6.609,0,0,1-.857-2.6c-.063-.406-.107-.817-.138-1.228-.056-.7-.079-1.4-.067-2.058a21.093,21.093,0,0,1,.2-3.784,5.791,5.791,0,0,1,.711-2.061,2.62,2.62,0,0,1,4.032-.514,2.989,2.989,0,0,1,.652,1.149,11.991,11.991,0,0,1,.537,3.054A31.77,31.77,0,0,1,459.811,994.871Z" fill="#333"/>
    <path id="Path_1181" data-name="Path 1181" d="M409.542,1019.293a47.275,47.275,0,0,1-12.827-1.558,48.616,48.616,0,0,1-16.618-7.864,49.159,49.159,0,0,1-3.839-3.112c-.409-.366-.519-.71-.307-1s.583-.3,1.051-.026a63.288,63.288,0,0,0,7.542,3.7,67.22,67.22,0,0,0,13.549,3.959,66.519,66.519,0,0,0,7.281.919c1.827.128,3.655.2,5.486.176a65.268,65.268,0,0,0,9.035-.763,66.016,66.016,0,0,0,15.5-4.363,1.624,1.624,0,0,1,.936-.154.92.92,0,0,1,.581,1.526,2.21,2.21,0,0,1-.464.4,40.284,40.284,0,0,1-10.029,5.18,51.223,51.223,0,0,1-9.84,2.469A38.953,38.953,0,0,1,409.542,1019.293Z" fill="#58595b"/>
    <path id="Path_1182" data-name="Path 1182" d="M438.679,986.075h-6.555c-.618,0-.873-.254-.874-.867q0-1.321,0-2.644a.716.716,0,0,1,.8-.816q6.371,0,12.742,0a.733.733,0,0,1,.814.834c0,.643-.023,1.287.008,1.928a2.236,2.236,0,0,1-.428,1.435q-.774,1.116-1.553,2.231l-5.445,7.77c-.065.093-.127.187-.217.322h.369a14.669,14.669,0,0,1,6.052,1.129c.293.13.576.282.862.428a1.3,1.3,0,0,1,.738,1.223q.018,1.472,0,2.941a.7.7,0,0,1-1.073.647,14.7,14.7,0,0,0-13.382.027.658.658,0,0,1-1.012-.555c-.005-1.251-.07-2.5.039-3.753a2.713,2.713,0,0,1,.51-1.32q3.721-5.328,7.438-10.659A.716.716,0,0,0,438.679,986.075Z" fill="#58595b"/>
    <path id="Path_1183" data-name="Path 1183" d="M436.3,1006.827a44.227,44.227,0,0,0-5,.386,1.775,1.775,0,0,1-.493.015.363.363,0,0,1-.3-.53,1.106,1.106,0,0,1,.442-.486,11.116,11.116,0,0,1,4.311-1.712,15.7,15.7,0,0,1,5.921-.03,7.2,7.2,0,0,1,1.091.316,1.109,1.109,0,0,1,.762,1.045,9.129,9.129,0,0,1-.2,2.7,15.43,15.43,0,0,1-2.481,5.952,9.736,9.736,0,0,1-1.677,1.84,1.085,1.085,0,0,1-.543.278.366.366,0,0,1-.456-.4,1.284,1.284,0,0,1,.123-.45,45.645,45.645,0,0,0,1.708-4.841,9.152,9.152,0,0,0,.406-2.379,1.278,1.278,0,0,0-1.159-1.49A9.643,9.643,0,0,0,436.3,1006.827Z" fill="#58595b"/>
  </g>
</svg>
