<svg xmlns="http://www.w3.org/2000/svg" width="16.223" height="16.223" viewBox="0 0 16.223 16.223">
  <path id="Path_1322" data-name="Path 1322" d="M857.607,92.126a.678.678,0,0,1,.678-.677,6.778,6.778,0,0,1,6.77,6.771.677.677,0,0,1-1.354,0,5.422,5.422,0,0,0-5.416-5.417A.678.678,0,0,1,857.607,92.126Zm.678,3.385a2.709,2.709,0,0,1,2.708,2.709.677.677,0,0,0,1.354,0,4.067,4.067,0,0,0-4.062-4.063.677.677,0,1,0,0,1.354Zm6.156,7.272a2.1,2.1,0,0,1,0,2.964l-.616.71c-5.545,5.309-19.04-8.182-13.812-13.745l.778-.677a2.088,2.088,0,0,1,2.93.027c.021.021,1.276,1.651,1.276,1.651a2.1,2.1,0,0,1-.005,2.9l-.784.986a8.652,8.652,0,0,0,4.693,4.7l.992-.789a2.1,2.1,0,0,1,2.9,0S864.42,102.762,864.441,102.783Zm-.931.984s-1.621-1.246-1.642-1.267a.744.744,0,0,0-1.048,0c-.019.019-1.384,1.107-1.384,1.107a.679.679,0,0,1-.663.1,10.16,10.16,0,0,1-5.973-5.964.679.679,0,0,1,.1-.677s1.088-1.367,1.107-1.384a.745.745,0,0,0,0-1.049c-.021-.02-1.268-1.642-1.268-1.642a.744.744,0,0,0-1.022.026l-.779.678c-3.82,4.593,7.874,15.638,11.9,11.834l.617-.711a.759.759,0,0,0,.058-1.054Z" transform="translate(-848.832 -91.448)" fill="#f15a24"/>
</svg>
