<svg xmlns="http://www.w3.org/2000/svg" width="40.259" height="40.258" viewBox="0 0 40.259 40.258">
  <path id="Path_582" data-name="Path 582" d="M979.638,1930.555h0a1.677,1.677,0,0,0-2.372,0L960,1947.821l-17.266-17.266a1.677,1.677,0,0,0-2.372,0h0a1.677,1.677,0,0,0,0,2.372l17.266,17.266-17.266,17.266a1.676,1.676,0,0,0,0,2.371h0a1.677,1.677,0,0,0,2.372,0L960,1952.565l17.266,17.266a1.679,1.679,0,0,0,2.372,0h0a1.677,1.677,0,0,0,0-2.372l-17.266-17.266,17.266-17.266A1.677,1.677,0,0,0,979.638,1930.555Z" transform="translate(-939.871 -1930.064)" fill="#f15a24"/>
</svg>
