<svg xmlns="http://www.w3.org/2000/svg" width="194.746" height="45.551" viewBox="0 0 194.746 45.551">
  <g id="Group_521" data-name="Group 521" transform="translate(-2049.447 -78.864)">
    <g id="Group_487" data-name="Group 487">
      <g id="Group_486" data-name="Group 486">
        <path id="Path_971" data-name="Path 971" d="M2103.065,78.865V96.1l-10.9-17.232h-7.132v24.822h4.177V81.567l14.166,22.12h3.869V78.865Z" fill="#58595b"/>
      </g>
    </g>
    <g id="Group_490" data-name="Group 490">
      <g id="Group_489" data-name="Group 489">
        <g id="Group_488" data-name="Group 488">
          <path id="Path_972" data-name="Path 972" d="M2103.065,110.664v12.482h4.178V110.664Zm-14.209,0h-3.825v12.482h4.177v-4.553l2.916,4.553h4.629Z" fill="gray"/>
        </g>
      </g>
    </g>
    <path id="Path_973" data-name="Path 973" d="M2141.307,78.919h-20.161a.529.529,0,0,0-.529.529V82.4a.53.53,0,0,0,.529.53h7.97V108.46a.529.529,0,0,0,.53.528h3.16a.529.529,0,0,0,.53-.528V82.931h7.971a.53.53,0,0,0,.529-.53V79.448A.528.528,0,0,0,2141.307,78.919Z" fill="#58595b"/>
    <g id="Group_493" data-name="Group 493">
      <g id="Group_492" data-name="Group 492">
        <g id="Group_491" data-name="Group 491">
          <path id="Path_974" data-name="Path 974" d="M2129.116,114.345v8.707h4.22v-8.707Z" fill="gray"/>
        </g>
      </g>
    </g>
    <g id="Group_494" data-name="Group 494">
      <rect id="Rectangle_178" data-name="Rectangle 178" width="13.196" height="4.399" rx="0.428" transform="translate(2053.846 114.06)" fill="#58595b"/>
    </g>
    <g id="Group_495" data-name="Group 495">
      <path id="Path_975" data-name="Path 975" d="M2053.418,87.664h-3.542c-.237,0-.429.287-.429.642v25.107c0,.355.192.643.429.643h3.542c.236,0,.428-.288.428-.643V88.306C2053.846,87.951,2053.654,87.664,2053.418,87.664Z" fill="#58595b"/>
    </g>
    <g id="Group_496" data-name="Group 496">
      <path id="Path_976" data-name="Path 976" d="M2067.471,114.056h3.542c.236,0,.428-.288.428-.643V88.306c0-.355-.192-.642-.428-.642h-3.542c-.237,0-.429.287-.429.642v25.107C2067.042,113.768,2067.234,114.056,2067.471,114.056Z" fill="#58595b"/>
    </g>
    <g id="Group_497" data-name="Group 497">
      <rect id="Rectangle_179" data-name="Rectangle 179" width="13.196" height="4.399" rx="0.428" transform="translate(2053.846 83.265)" fill="#58595b"/>
    </g>
    <g id="Group_498" data-name="Group 498">
      <rect id="Rectangle_180" data-name="Rectangle 180" width="4.399" height="43.996" rx="0.428" transform="translate(2076.588 78.864)" fill="#58595b"/>
    </g>
    <g id="Group_499" data-name="Group 499">
      <rect id="Rectangle_181" data-name="Rectangle 181" width="4.399" height="43.996" rx="0.428" transform="translate(2111.782 78.864)" fill="#58595b"/>
    </g>
    <g id="Group_501" data-name="Group 501">
      <g id="Group_500" data-name="Group 500">
        <path id="Path_977" data-name="Path 977" d="M2163.27,78.865v27.8h4.22v-27.8Z" fill="#58595b"/>
      </g>
    </g>
    <g id="Group_504" data-name="Group 504">
      <g id="Group_503" data-name="Group 503">
        <g id="Group_502" data-name="Group 502">
          <path id="Path_978" data-name="Path 978" d="M2163.27,117.614v5.532h4.22v-5.532Z" fill="gray"/>
        </g>
      </g>
    </g>
    <g id="Group_507" data-name="Group 507">
      <g id="Group_506" data-name="Group 506">
        <g id="Group_505" data-name="Group 505">
          <path id="Path_979" data-name="Path 979" d="M2163.27,110.664v3.953h4.22v-3.953Z" fill="gray"/>
        </g>
      </g>
    </g>
    <g id="Group_508" data-name="Group 508">
      <rect id="Rectangle_182" data-name="Rectangle 182" width="13.196" height="4.399" rx="0.428" transform="translate(2230.997 114.058)" fill="#58595b"/>
    </g>
    <g id="Group_509" data-name="Group 509">
      <path id="Path_980" data-name="Path 980" d="M2230.267,87.661h-3.542c-.236,0-.428.288-.428.643v25.107c0,.355.192.643.428.643h3.542c.237,0,.428-.288.428-.643V88.3C2230.7,87.949,2230.5,87.661,2230.267,87.661Z" fill="#58595b"/>
    </g>
    <g id="Group_510" data-name="Group 510">
      <rect id="Rectangle_183" data-name="Rectangle 183" width="13.196" height="4.399" rx="0.428" transform="translate(2230.997 83.263)" fill="#58595b"/>
    </g>
    <g id="Group_511" data-name="Group 511">
      <path id="Path_981" data-name="Path 981" d="M2243.116,98.658h-9.549a.389.389,0,0,0-.331.428v3.543a.389.389,0,0,0,.331.428h9.549a.389.389,0,0,0,.331-.428V99.086A.389.389,0,0,0,2243.116,98.658Z" fill="#58595b"/>
    </g>
    <g id="Group_512" data-name="Group 512">
      <rect id="Rectangle_184" data-name="Rectangle 184" width="4.399" height="43.996" rx="0.428" transform="translate(2146.208 78.864)" fill="#58595b"/>
    </g>
    <g id="Group_513" data-name="Group 513">
      <rect id="Rectangle_185" data-name="Rectangle 185" width="4.399" height="43.996" rx="0.428" transform="translate(2181.402 78.864)" fill="#58595b"/>
    </g>
    <g id="Group_514" data-name="Group 514">
      <rect id="Rectangle_186" data-name="Rectangle 186" width="4.399" height="43.996" rx="0.428" transform="translate(2216.596 78.864)" fill="#58595b"/>
    </g>
    <g id="Group_515" data-name="Group 515">
      <path id="Path_982" data-name="Path 982" d="M2198.09,121.3l3.11,3.11,3.11-3.11Z" fill="gray"/>
    </g>
    <g id="Group_516" data-name="Group 516">
      <rect id="Rectangle_187" data-name="Rectangle 187" width="4.399" height="13.2" rx="0.428" transform="translate(2190.199 109.946)" fill="gray"/>
    </g>
    <g id="Group_517" data-name="Group 517">
      <rect id="Rectangle_188" data-name="Rectangle 188" width="4.399" height="13.2" rx="0.428" transform="translate(2207.799 109.946)" fill="gray"/>
    </g>
    <g id="Group_518" data-name="Group 518">
      <rect id="Rectangle_189" data-name="Rectangle 189" width="4.399" height="21.998" rx="0.428" transform="translate(2207.799 79.15)" fill="#58595b"/>
    </g>
    <g id="Group_519" data-name="Group 519">
      <path id="Path_983" data-name="Path 983" d="M2198.09,88.594l3.11,3.11,3.11-3.11Z" fill="#58595b"/>
    </g>
    <g id="Group_520" data-name="Group 520">
      <rect id="Rectangle_190" data-name="Rectangle 190" width="4.399" height="21.998" rx="0.428" transform="translate(2190.199 79.15)" fill="#58595b"/>
    </g>
  </g>
</svg>
