<svg xmlns="http://www.w3.org/2000/svg" width="18.914" height="18.912" viewBox="0 0 18.914 18.912">
  <g id="Group_547" data-name="Group 547" transform="translate(-3705.382 -91.163)">
    <g id="Group_544" data-name="Group 544">
      <path id="Path_1138" data-name="Path 1138" d="M3723.625,96.332v8.577c-.028.18-.047.362-.087.539a4.788,4.788,0,0,1-3.618,3.812c-.257.071-.525.1-.788.144h-8.576c-.055-.011-.11-.024-.166-.031a4.307,4.307,0,0,1-1.386-.365,4.732,4.732,0,0,1-2.932-4.475c-.037-2.607-.01-5.214-.008-7.822a4.6,4.6,0,0,1,.616-2.378A4.767,4.767,0,0,1,3711,91.841c2.561-.013,5.122-.006,7.683,0a4.665,4.665,0,0,1,.988.089,4.766,4.766,0,0,1,3.806,3.612C3723.552,95.8,3723.578,96.069,3723.625,96.332Zm-1.557,4.306q0-1.913,0-3.824a3.515,3.515,0,0,0-.177-1.181,3.287,3.287,0,0,0-3.219-2.237c-2.549,0-5.1-.008-7.647.007a3.756,3.756,0,0,0-1.16.177,3.248,3.248,0,0,0-2.244,3.208c0,2.555-.008,5.11.007,7.666a3.708,3.708,0,0,0,.175,1.143,3.244,3.244,0,0,0,3.187,2.248q3.858.009,7.716,0a3.246,3.246,0,0,0,2.749-1.387,3.3,3.3,0,0,0,.614-2.013Q3722.066,102.542,3722.068,100.638Z" fill="#58595b"/>
      <path id="Path_1139" data-name="Path 1139" d="M3719.191,110.075l-8.875-.034a4.968,4.968,0,0,1-1.6-.426,5.416,5.416,0,0,1-3.316-5.073c-.027-1.886-.02-3.8-.014-5.654,0-.725.005-1.452.006-2.177a5.272,5.272,0,0,1,.709-2.718,5.4,5.4,0,0,1,4.9-2.823c2.514-.013,5.067-.006,7.535,0h.154a5.2,5.2,0,0,1,1.13.105,5.408,5.408,0,0,1,4.309,4.087,5.228,5.228,0,0,1,.12.618c.012.078.024.156.038.234l.01.117-.008,8.682-.023.159c-.02.141-.041.283-.072.422a5.432,5.432,0,0,1-4.094,4.311,5.346,5.346,0,0,1-.613.121c-.079.011-.157.024-.236.038Zm-8.567-1.342h8.45l.21-.033a3.882,3.882,0,0,0,.455-.087,4.123,4.123,0,0,0,3.144-3.313c.024-.1.038-.209.052-.315l.019-.124V96.39c-.012-.069-.022-.139-.033-.208a3.989,3.989,0,0,0-.086-.46,4.1,4.1,0,0,0-3.3-3.135,3.925,3.925,0,0,0-.845-.074h-.153c-2.467-.007-5.018-.014-7.525,0a4.083,4.083,0,0,0-3.749,2.161,3.96,3.96,0,0,0-.523,2.038q0,1.091-.006,2.181c-.006,1.847-.013,3.756.014,5.63a4.053,4.053,0,0,0,2.549,3.879,3.64,3.64,0,0,0,1.171.3C3710.517,108.712,3710.57,108.722,3710.624,108.733Zm3.995-.213q-1.815,0-3.63,0a3.916,3.916,0,0,1-3.823-2.705,4.394,4.394,0,0,1-.209-1.353c-.015-2.446-.011-4.892-.008-7.338v-.333a3.926,3.926,0,0,1,2.7-3.843,4.444,4.444,0,0,1,1.37-.212c2.3-.014,4.61-.011,6.916-.008h.736a3.933,3.933,0,0,1,3.85,2.684,4.09,4.09,0,0,1,.216,1.4v4.967q0,1.332,0,2.665a3.985,3.985,0,0,1-.743,2.41,3.9,3.9,0,0,1-3.29,1.661Q3716.664,108.519,3714.619,108.52Zm.417-14.456q-2,0-4.007.01a3.054,3.054,0,0,0-.95.143,2.587,2.587,0,0,0-1.787,2.571v.334c0,2.443-.007,4.885.008,7.328a3.044,3.044,0,0,0,.14.934,2.574,2.574,0,0,0,2.553,1.789q3.855.011,7.713,0a2.582,2.582,0,0,0,2.209-1.113,2.616,2.616,0,0,0,.483-1.614q0-1.333,0-2.667V96.815a2.842,2.842,0,0,0-.138-.956,2.609,2.609,0,0,0-2.588-1.792h-.735Z" fill="#58595b"/>
    </g>
    <g id="Group_545" data-name="Group 545">
      <path id="Path_1140" data-name="Path 1140" d="M3718.5,100.627a3.661,3.661,0,1,1-3.659-3.668A3.676,3.676,0,0,1,3718.5,100.627Zm-3.656-2.4a2.4,2.4,0,1,0,2.393,2.4A2.4,2.4,0,0,0,3714.849,98.222Z" fill="#58595b"/>
      <path id="Path_1141" data-name="Path 1141" d="M3714.856,104.45h-.022a3.825,3.825,0,0,1-2.718-1.15,3.773,3.773,0,0,1-1.1-2.693,3.846,3.846,0,0,1,3.826-3.815h.006a3.829,3.829,0,0,1,.009,7.658Zm-.015-7.323a3.508,3.508,0,0,0-3.49,3.482,3.439,3.439,0,0,0,1,2.456,3.5,3.5,0,0,0,2.481,1.05h.02a3.445,3.445,0,0,0,2.437-1.012,3.481,3.481,0,0,0,1.044-2.477h0a3.508,3.508,0,0,0-3.491-3.5Zm.01,6.06h-.013a2.565,2.565,0,0,1-1.8-4.386,2.529,2.529,0,0,1,1.8-.746h.013a2.563,2.563,0,0,1,1.815.759,2.536,2.536,0,0,1,.746,1.812,2.566,2.566,0,0,1-.759,1.815A2.531,2.531,0,0,1,3714.851,103.187Zm-.015-4.8a2.2,2.2,0,0,0-1.562.648,2.23,2.23,0,1,0,3.8,1.587,2.2,2.2,0,0,0-.648-1.575,2.234,2.234,0,0,0-1.579-.66h-.011Z" fill="#58595b"/>
    </g>
    <g id="Group_546" data-name="Group 546">
      <path id="Path_1142" data-name="Path 1142" d="M3719.072,95.233a1.278,1.278,0,1,1-1.282,1.268A1.288,1.288,0,0,1,3719.072,95.233Z" fill="#58595b"/>
    </g>
  </g>
</svg>
