<svg xmlns="http://www.w3.org/2000/svg" width="20.549" height="17.131" viewBox="0 0 20.549 17.131">
  <g id="Group_542" data-name="Group 542" transform="translate(-3658.343 -92.053)">
    <path id="Path_1134" data-name="Path 1134" d="M3658.343,99.853a1.428,1.428,0,0,1,.836-.677c1.376-.535,2.755-1.061,4.134-1.589q7.083-2.712,14.167-5.422a1.611,1.611,0,0,1,.346-.1.872.872,0,0,1,1.065.959,7.349,7.349,0,0,1-.2,1.3q-1.456,6.854-2.926,13.7a2.746,2.746,0,0,1-.237.677.8.8,0,0,1-1.012.429,2.07,2.07,0,0,1-.609-.29c-1.474-1.067-2.939-2.145-4.407-3.22l-.191-.136c-.058.051-.113.1-.165.146q-1.125,1.074-2.25,2.149a1.1,1.1,0,0,1-.818.333c.019-.29.037-.574.058-.857.089-1.255.176-2.51.274-3.763a.436.436,0,0,1,.133-.267q4.266-3.843,8.54-7.676c.02-.018.047-.032.059-.054.054-.1.1-.2.154-.3a1.1,1.1,0,0,0-.365-.063,1.2,1.2,0,0,0-.4.182q-5.316,3.323-10.63,6.644a.4.4,0,0,1-.289.05c-1.507-.46-3.012-.931-4.517-1.4a1.219,1.219,0,0,1-.752-.522Z" fill="#58595b"/>
  </g>
</svg>
