<svg xmlns="http://www.w3.org/2000/svg" width="13.779" height="16.534" viewBox="0 0 13.779 16.534">
  <path id="Path_1321" data-name="Path 1321" d="M652.025,95.04l-2.4-2.4a4.793,4.793,0,0,0-3.41-1.412H643.1a3.448,3.448,0,0,0-3.444,3.445v9.645a3.448,3.448,0,0,0,3.444,3.444h6.89a3.449,3.449,0,0,0,3.445-3.444V98.449A4.793,4.793,0,0,0,652.025,95.04Zm-.975.974a3.391,3.391,0,0,1,.538.723h-2.973a.688.688,0,0,1-.689-.689V93.075a3.462,3.462,0,0,1,.724.537Zm1.01,8.3a2.068,2.068,0,0,1-2.067,2.067H643.1a2.067,2.067,0,0,1-2.066-2.067V94.671A2.066,2.066,0,0,1,643.1,92.6h3.111c.113,0,.223.022.334.032v3.412a2.067,2.067,0,0,0,2.067,2.067h3.412c.011.112.033.221.033.334Z" transform="translate(-639.659 -91.226)" fill="#f15a24"/>
</svg>
