<svg xmlns="http://www.w3.org/2000/svg" width="95.781" height="29.416" viewBox="0 0 95.781 29.416">
  <g id="Group_605" data-name="Group 605" transform="translate(-538.468 -977.157)">
    <path id="Path_1184" data-name="Path 1184" d="M594.139,1005.068V977.4a.353.353,0,0,0-.021-.153c0-.014-.007-.02-.013-.034a.131.131,0,0,0-.042-.049c-.062,0-.118-.007-.18-.007h-6.128a.829.829,0,0,1-.132,0c-.111-.007-.145.056-.145.153v11.126a.535.535,0,0,1-.035.311.35.35,0,0,1-.063-.013c-.055-.056-.11-.111-.159-.167a6.246,6.246,0,0,0-3.147-1.837,8.966,8.966,0,0,0-2.717-.215,8.637,8.637,0,0,0-5.5,2.406,9.92,9.92,0,0,0-2.635,4.3c-.02.027-.034.076-.09.048a11.369,11.369,0,0,0-.651-1.622,8.873,8.873,0,0,0-4.915-4.513,11.865,11.865,0,0,0-6.835-.423,9.268,9.268,0,0,0-6.183,4.34c-.021.034-.035.083-.1.069a.6.6,0,0,1-.014-.249v-3.064c0-.271-.007-.278-.284-.278h-7.861c-.291,0-.291,0-.291-.291v-3.493c0-.25,0-.25.249-.257h8.617c.346,0,.346.056.346-.34V977.5c0-.4.007-.34-.339-.34H538.808a1.54,1.54,0,0,1-.18,0c-.118-.007-.166.049-.159.167v27.915c0,.3,0,.3.312.3h6.841c.423,0,.382.041.382-.375V993.943c0-.34-.021-.326.312-.326h6.869a.747.747,0,0,1,.125.007c.166.007.173.013.146.173-.007.028-.014.048-.021.076a11.335,11.335,0,0,0-.118,4.43,9.444,9.444,0,0,0,1.858,4.3,9.983,9.983,0,0,0,7.105,3.833,12.122,12.122,0,0,0,3.507-.139,9.25,9.25,0,0,0,4.284-1.9,10.318,10.318,0,0,0,3.023-4.18.137.137,0,0,0,.014-.125c-.063-.048-.146-.028-.215-.028-.215-.007-.423,0-.638,0q-2.641,0-5.3-.007a.416.416,0,0,0-.395.2,3.7,3.7,0,0,1-.368.45,2.555,2.555,0,0,1-1.435.853,5.657,5.657,0,0,1-1.809.083,3.886,3.886,0,0,1-3.258-3.459c-.034-.381-.083-.361.34-.361h12.394a1.123,1.123,0,0,1,.153,0c.215,0,.215,0,.249.222a11.184,11.184,0,0,0,.409,1.775,10.1,10.1,0,0,0,2.981,4.568,8.731,8.731,0,0,0,5.289,2.17,6.538,6.538,0,0,0,4.055-1.026,6.375,6.375,0,0,0,1.692-1.615c.055-.07.083-.16.187-.188a.525.525,0,0,1,.035.264v1.289c0,.257,0,.257.249.257h6.059c.09,0,.187-.007.277-.007a.153.153,0,0,0,.035-.056.146.146,0,0,0,.02-.034A.962.962,0,0,0,594.139,1005.068Zm-27.312-11.375h-6.634c-.325,0-.325-.007-.228-.3a3.871,3.871,0,0,1,.845-1.511,3.5,3.5,0,0,1,3.21-1.116,3.323,3.323,0,0,1,2.038.984,3.688,3.688,0,0,1,.922,1.747C567.021,993.658,567,993.679,566.827,993.693Zm20.1,5.026a3.682,3.682,0,0,1-1.081,1.656,3.463,3.463,0,0,1-2.752.825,3.667,3.667,0,0,1-2.905-1.962,5.311,5.311,0,0,1-.7-2.661,6.568,6.568,0,0,1,.575-2.752,4.012,4.012,0,0,1,1.449-1.719,3.681,3.681,0,0,1,4.312.325,3.827,3.827,0,0,1,1.019,1.553A7.074,7.074,0,0,1,586.923,998.719Z" fill="#333"/>
    <path id="Path_1185" data-name="Path 1185" d="M609.927,987.65c-.012-.054-.015-.105.058-.111s.135-.007.2-.007q3.915,0,7.83,0a.55.55,0,0,1,.458.2c1.179,1.313,2.367,2.617,3.552,3.925.24.264.219.248.447-.013q1.691-1.938,3.376-3.878a.619.619,0,0,1,.52-.236q3.725.011,7.449.005a.722.722,0,0,1,.308.031.415.415,0,0,1-.133.215q-1.926,2.168-3.852,4.335-1.875,2.112-3.747,4.225c-.139.156-.141.16.01.33q1,1.125,2.008,2.247l5.295,5.934c.163.183.326.365.488.549.027.03.064.057.05.116-.071.05-.157.027-.237.028q-3.952,0-7.906,0a.522.522,0,0,1-.434-.2q-1.777-2.012-3.568-4.012c-.183-.206-.182-.207-.358-.008q-.837.949-1.676,1.9c-.62.7-1.243,1.4-1.856,2.111a.542.542,0,0,1-.456.206q-3.953-.011-7.905-.009l-15.431.005c-.1,0-.2-.007-.3-.011a.54.54,0,0,1-.024-.273q0-13.908,0-27.815a.54.54,0,0,1,.024-.273c.11,0,.22-.01.329-.01h15c.426,0,.4-.049.4.4q0,2.785,0,5.571c0,.4.016.364-.375.364h-8.335c-.357,0-.356-.042-.356.36q0,1.659,0,3.316c0,.059,0,.118,0,.177,0,.125.05.19.18.187.084,0,.169,0,.253,0h8.233c.438,0,.4-.019.4.4q0,2.672,0,5.343a1.494,1.494,0,0,1-.019.353c-.045.1-.141.11-.234.118-.143.012-.287.008-.43.008h-7.528c-.1,0-.2,0-.3,0-.321.016-.434.115-.436.431q-.012,2.229,0,4.459c0,.307.112.408.413.426.11.007.22,0,.33,0q3.852,0,7.7,0a.881.881,0,0,1,.518.07c.083.1.052.227.053.342q0,2.418,0,4.837a1.746,1.746,0,0,0,.126.687c.1.056.141-.025.187-.078.816-.955,1.663-1.882,2.495-2.822q1.114-1.258,2.237-2.51c.821-.917,1.634-1.84,2.453-2.758.264-.3.248-.34-.009-.63q-1.123-1.268-2.25-2.532-.882-.993-1.762-1.986-.917-1.029-1.829-2.06c-.457-.518-.915-1.037-1.382-1.546A.839.839,0,0,1,609.927,987.65Z" fill="#58595b"/>
    <path id="Path_1186" data-name="Path 1186" d="M594.115,977.17v28.361h-.051c0-.127,0-.253,0-.38V977.574c0-.135,0-.271,0-.406Z" fill="#727272"/>
  </g>
</svg>
