<svg xmlns="http://www.w3.org/2000/svg" width="16.774" height="16.774" viewBox="0 0 16.774 16.774">
  <path id="Path_1323" data-name="Path 1323" d="M972.551,94.026h-.769a3.5,3.5,0,0,0-3.425-2.8h-1.4a3.5,3.5,0,0,0-3.425,2.8h-.768a3.5,3.5,0,0,0-3.495,3.5v6.989A3.5,3.5,0,0,0,962.766,108h9.785a3.5,3.5,0,0,0,3.494-3.494V97.521A3.5,3.5,0,0,0,972.551,94.026Zm-5.592-1.4h1.4a2.1,2.1,0,0,1,1.968,1.4h-5.334A2.1,2.1,0,0,1,966.959,92.628Zm-4.193,2.8h9.785a2.1,2.1,0,0,1,2.1,2.1v2.1H960.669v-2.1A2.1,2.1,0,0,1,962.766,95.424Zm9.785,11.183h-9.785a2.1,2.1,0,0,1-2.1-2.1v-3.5h6.29v.7a.7.7,0,1,0,1.4,0v-.7h6.29v3.5A2.1,2.1,0,0,1,972.551,106.607Z" transform="translate(-959.271 -91.23)" fill="#f15a24"/>
</svg>
