<svg xmlns="http://www.w3.org/2000/svg" width="107.065" height="51.295" viewBox="0 0 107.065 51.295">
  <g id="Group_609" data-name="Group 609" transform="translate(-1106.813 -968.895)">
    <path id="Path_1251" data-name="Path 1251" d="M1117.474,993.392c.014-1.784.007-3.568.007-5.352s.007-3.54-.007-5.31c0-.345.095-.467.45-.459.885.021,1.772.017,2.657,0,.309-.006.417.095.416.409q-.012,5.4,0,10.788c0,.312-.093.413-.41.406-.885-.019-1.772-.028-2.657,0C1117.534,993.893,1117.47,993.74,1117.474,993.392Z" fill="silver"/>
    <path id="Path_1252" data-name="Path 1252" d="M1121,1006.4c0,.36-.085.495-.468.483-.873-.028-1.747-.021-2.619,0-.318.006-.441-.073-.44-.419q.018-5.38,0-10.76c0-.3.072-.427.4-.42.9.02,1.8.022,2.7,0,.353-.008.422.134.42.447-.01,1.786-.005,3.572-.005,5.358S1120.984,1004.627,1121,1006.4Z" fill="silver"/>
    <path id="Path_1253" data-name="Path 1253" d="M1122.37,993.4q.02-5.314,0-10.63c0-.38.095-.517.491-.505.857.027,1.717.023,2.575,0,.352-.008.459.11.456.457-.011,2.376.005,4.753-.015,7.128,0,.431.122.548.547.543q2.7-.035,5.4,0c.4,0,.529-.1.526-.51-.02-2.362,0-4.725-.018-7.086,0-.393.084-.548.508-.533.872.031,1.745.018,2.618.005.288,0,.4.09.4.386q-.01,5.419,0,10.84c0,.352-.165.375-.439.374-2.1-.007-4.195,0-6.293,0s-4.194-.01-6.291.008C1122.462,993.881,1122.369,993.771,1122.37,993.4Z" fill="silver"/>
    <path id="Path_1254" data-name="Path 1254" d="M1135.864,995.747q-.021,5.337,0,10.674c0,.341-.085.47-.446.459q-1.287-.036-2.577,0c-.374.011-.505-.085-.5-.486.019-2.363.009-4.725.009-7.088,0-.539,0-.54-.556-.54-1.788,0-3.576.014-5.364-.01-.423-.006-.552.1-.548.536.021,2.362,0,4.725.017,7.087,0,.374-.089.517-.49.5-.886-.03-1.774-.017-2.661-.005-.269,0-.371-.076-.37-.357q.01-5.444,0-10.886c0-.335.169-.351.422-.351q3.168.008,6.335,0c2.083,0,4.168.008,6.251-.008C1135.743,995.276,1135.865,995.369,1135.864,995.747Z" fill="silver"/>
    <path id="Path_1255" data-name="Path 1255" d="M1140.755,995.641q-.009,5.442,0,10.885c0,.285-.116.354-.379.351-.914-.011-1.83-.018-2.745,0-.333.008-.394-.125-.392-.422.011-1.8.006-3.6.006-5.4,0-1.757.009-3.515-.008-5.273,0-.371.078-.521.484-.507.885.029,1.773.017,2.66.005C1140.65,995.278,1140.756,995.363,1140.755,995.641Z" fill="silver"/>
    <path id="Path_1256" data-name="Path 1256" d="M1140.757,982.681q-.013,5.392,0,10.787c0,.3-.084.416-.406.408-.9-.021-1.8-.023-2.7,0-.357.009-.415-.133-.413-.442.011-1.8.006-3.6.006-5.393,0-1.77.007-3.54-.007-5.31,0-.34.085-.471.445-.463.885.022,1.771.018,2.657,0C1140.649,982.267,1140.758,982.367,1140.757,982.681Z" fill="silver"/>
    <path id="Path_1257" data-name="Path 1257" d="M1151.515,982.351a.917.917,0,0,0-.531-.9q-10.725-6.2-21.436-12.429a.666.666,0,0,0-.769-.01q-5.124,2.989-10.258,5.957-5.586,3.242-11.177,6.476a.894.894,0,0,0-.527.891c.017,4.064.01,8.129.01,12.193s.01,8.1-.014,12.151a.989.989,0,0,0,.591.984c2.76,1.579,5.508,3.179,8.259,4.775q6.59,3.823,13.178,7.651a.543.543,0,0,0,.622,0q3.9-2.277,7.811-4.536,6.864-3.984,13.732-7.96a.869.869,0,0,0,.508-.862Q1151.5,994.542,1151.515,982.351Zm-3.714,23.472q-6.858,3.949-13.7,7.936c-1.533.89-3.07,1.772-4.6,2.67a.636.636,0,0,1-.734-.007q-9.1-5.295-18.221-10.563a1.059,1.059,0,0,1-.608-1.063q.029-10.207,0-20.418a1.2,1.2,0,0,1,.7-1.219c3.714-2.121,7.405-4.283,11.105-6.43q3.5-2.034,7.007-4.07a.68.68,0,0,1,.777-.013q9.174,5.343,18.36,10.662a.736.736,0,0,1,.42.735c-.01,3.5-.006,7-.006,10.5,0,3.459-.006,6.919.009,10.378A.9.9,0,0,1,1147.8,1005.823Z" fill="#8e8e8e"/>
    <path id="Path_1258" data-name="Path 1258" d="M1168.626,1005.6a4.589,4.589,0,0,1-2.334,1.594,5.539,5.539,0,0,1-7.038-3.714,10.181,10.181,0,0,1-.036-6.741,5.88,5.88,0,0,1,6.166-4,5.551,5.551,0,0,1,3.815,1.535,5.482,5.482,0,0,1,1.41,3c.033.191.059.354-.228.379q-1.217.108-2.431.257c-.318.039-.5-.04-.55-.384a2.819,2.819,0,0,0-.381-.975,2.362,2.362,0,0,0-3.918-.237,5.411,5.411,0,0,0-.928,3.059,8,8,0,0,0,.42,3.363,2.687,2.687,0,0,0,2.327,1.983,2.354,2.354,0,0,0,2.564-2.089c.025-.29-.032-.437-.376-.423-.661.026-1.323,0-1.985.01-.234,0-.328-.077-.325-.315q.014-.948,0-1.9c0-.223.064-.331.311-.33q2.64.011,5.279,0c.214,0,.3.077.3.3q-.008,3.437,0,6.875c0,.229-.079.318-.316.334-1.161.082-1.16.088-1.532-.995C1168.777,1006.012,1168.71,1005.833,1168.626,1005.6Z" fill="#585858"/>
    <path id="Path_1259" data-name="Path 1259" d="M1170.779,987.762c0-2.193.01-4.386-.01-6.579,0-.4.127-.5.5-.485q1.139.039,2.279,0c.344-.011.43.113.427.436-.013,1.561.006,3.121-.014,4.682-.005.376.11.476.478.469,1.21-.022,2.421-.018,3.631,0,.321,0,.4-.1.4-.41-.014-1.589,0-3.177-.013-4.766,0-.31.082-.418.4-.41.8.021,1.6.017,2.407,0,.292-.006.392.088.392.383q-.01,6.664,0,13.329c0,.288-.083.395-.384.389-.788-.018-1.576-.022-2.364,0-.343.01-.459-.081-.455-.441.019-1.645,0-3.29.017-4.934.005-.379-.107-.474-.474-.467-1.21.022-2.421.018-3.631,0-.32,0-.407.1-.4.412.012,1.659,0,3.318.012,4.977,0,.348-.1.464-.45.452-.76-.024-1.521-.033-2.28,0-.415.019-.478-.145-.476-.506C1170.786,992.121,1170.779,989.941,1170.779,987.762Z" fill="#585858"/>
    <path id="Path_1260" data-name="Path 1260" d="M1213.714,1000.11a5.067,5.067,0,0,0-1.511-2.895c-1.174-1.115-3.864-1.488-5.072.355a.146.146,0,0,1-.2.084,4.361,4.361,0,0,1,0-.523c.037-.323-.1-.409-.409-.4-.688.02-1.378.014-2.067,0-.238,0-.325.081-.319.317.012.477,0,.955,0,1.433q0,5.923-.007,11.846c0,.356.075.5.463.486.716-.029,1.434-.023,2.151,0,.339.01.437-.114.432-.441-.016-1.026-.006-2.051-.006-3.077v-.861c.18-.018.22.09.281.157a2.939,2.939,0,0,0,2.224.94,3.97,3.97,0,0,0,3.609-2.539A8.69,8.69,0,0,0,1213.714,1000.11Zm-3.559,3.839c-.272.8-.7,1.149-1.372,1.148a1.4,1.4,0,0,1-1.45-1.171,8.152,8.152,0,0,1,0-4.2,1.484,1.484,0,0,1,2.906.057,7.13,7.13,0,0,1,.167,2A6.217,6.217,0,0,1,1210.155,1003.949Z" fill="#585858"/>
    <path id="Path_1261" data-name="Path 1261" d="M1204.666,985.785c-1.293-2.018-4.339-2.458-5.672-.322v-.405c0-1.309-.008-2.617.007-3.924,0-.321-.074-.449-.421-.436-.689.027-1.379.007-2.069.008-.552,0-.553,0-.553.546v12.573c0,1.038,0,1.029,1.053,1.031a.534.534,0,0,0,.588-.356c.108-.273.268-.525.391-.793.1-.22.183-.233.344-.038a3.714,3.714,0,0,0,3.219,1.411,3.659,3.659,0,0,0,3.2-1.923,6.126,6.126,0,0,0,.782-2.941A7.276,7.276,0,0,0,1204.666,985.785Zm-2.55,6.013a1.358,1.358,0,0,1-1.261,1.068,1.419,1.419,0,0,1-1.468-.979,6.049,6.049,0,0,1-.4-2.327,7.172,7.172,0,0,1,.276-2.1,1.422,1.422,0,0,1,1.512-1.19,1.393,1.393,0,0,1,1.177.837,4.471,4.471,0,0,1,.466,1.949A6.8,6.8,0,0,1,1202.116,991.8Z" fill="#585858"/>
    <path id="Path_1262" data-name="Path 1262" d="M1190.388,1001.109a4.843,4.843,0,0,0-5.2-4.8,4.679,4.679,0,0,0-4.013,1.841,5.577,5.577,0,0,0-1.055,3.147,6.237,6.237,0,0,0,1.069,4.32,4.967,4.967,0,0,0,4.527,1.834,4.655,4.655,0,0,0,4.418-3.422A7.94,7.94,0,0,0,1190.388,1001.109Zm-3.6,2.765a2.762,2.762,0,0,1-.31.734,1.347,1.347,0,0,1-2.4-.013,4.454,4.454,0,0,1-.534-2.016c-.019-.251,0-.505,0-.758a5.2,5.2,0,0,1,.427-2.505,1.373,1.373,0,0,1,1.665-.808,1.438,1.438,0,0,1,.866.752,4.064,4.064,0,0,1,.463,1.606A8.124,8.124,0,0,1,1186.785,1003.874Z" fill="#585858"/>
    <path id="Path_1263" data-name="Path 1263" d="M1198.408,1005.744a4.3,4.3,0,0,1-1.564,1.4,3.9,3.9,0,0,1-3.488-.255,2.354,2.354,0,0,1-1.031-1.762,9.43,9.43,0,0,1-.132-1.8c-.01-2.025.007-4.051-.013-6.076,0-.406.11-.534.52-.514.717.034,1.437.026,2.154,0,.341-.012.426.106.424.431-.012,1.969,0,3.938-.007,5.907a4.161,4.161,0,0,0,.092.878,1.127,1.127,0,0,0,1.577.92,1.75,1.75,0,0,0,1.2-1.493,5.14,5.14,0,0,0,.082-1.007c.008-1.73.013-3.46,0-5.189,0-.353.1-.459.452-.447.732.025,1.465.016,2.2,0,.261,0,.34.09.339.342q-.008,4.873,0,9.746c0,.275-.09.373-.364.368q-1.035-.02-2.07,0c-.267.005-.386-.078-.37-.361C1198.422,1006.509,1198.408,1006.188,1198.408,1005.744Z" fill="#585858"/>
    <path id="Path_1264" data-name="Path 1264" d="M1190.632,993.2a6.521,6.521,0,0,1-.825,1.033,3.466,3.466,0,0,1-3.608.562,2.686,2.686,0,0,1-1.741-2.471,20.224,20.224,0,0,1-.067-2.7c-.014-1.617.005-3.235-.011-4.852,0-.353.1-.462.454-.449.675.024,1.353.026,2.027,0,.365-.015.483.087.48.467-.018,2,0,3.994-.009,5.992a3.155,3.155,0,0,0,.092.793,1.2,1.2,0,0,0,.794,1.007,1.48,1.48,0,0,0,1.456-.319,2.366,2.366,0,0,0,.742-1.9c-.006-1.814,0-3.629,0-5.443,0-.593,0-.593.595-.593.69,0,1.38.008,2.069,0,.255-.005.344.08.343.338q-.009,4.895,0,9.789c0,.253-.075.347-.336.342-.7-.014-1.408-.017-2.112,0-.292.008-.358-.114-.346-.374C1190.644,994.056,1190.632,993.683,1190.632,993.2Z" fill="#585858"/>
    <path id="Path_1265" data-name="Path 1265" d="M1176.176,998.059c.1-.182.193-.365.293-.545a2.3,2.3,0,0,1,2.254-1.193c.229.005.33.089.328.326-.006.829-.008,1.659.005,2.488,0,.241-.095.32-.318.332a3.379,3.379,0,0,0-.583.086,2.293,2.293,0,0,0-1.806,2.171c-.125,1.46-.038,2.922-.056,4.384-.014,1.077,0,1.077-1.088,1.077-.52,0-1.041-.009-1.562,0-.252.006-.347-.084-.346-.341q.008-4.893,0-9.785c0-.268.109-.332.353-.328.7.011,1.408.012,2.111,0,.25,0,.359.069.344.333-.018.322,0,.646,0,.968Z" fill="#585858"/>
    <path id="Path_1266" data-name="Path 1266" d="M1117.474,993.392c.014-1.784.007-3.568.007-5.352s.007-3.54-.007-5.31c0-.345.095-.467.45-.459.885.021,1.772.017,2.657,0,.309-.006.417.095.416.409q-.012,5.4,0,10.788c0,.312-.093.413-.41.406-.885-.019-1.772-.028-2.657,0C1117.534,993.893,1117.47,993.74,1117.474,993.392Z" fill="#fefefe"/>
    <path id="Path_1267" data-name="Path 1267" d="M1121,1006.4c0,.36-.085.495-.468.483-.873-.028-1.747-.021-2.619,0-.318.006-.441-.073-.44-.419q.018-5.38,0-10.76c0-.3.072-.427.4-.42.9.02,1.8.022,2.7,0,.353-.008.422.134.42.447-.01,1.786-.005,3.572-.005,5.358S1120.984,1004.627,1121,1006.4Z" fill="#fefefe"/>
    <path id="Path_1268" data-name="Path 1268" d="M1122.37,993.4q.02-5.314,0-10.63c0-.38.095-.517.491-.505.857.027,1.717.023,2.575,0,.352-.008.459.11.456.457-.011,2.376.005,4.753-.015,7.128,0,.431.122.548.547.543q2.7-.035,5.4,0c.4,0,.529-.1.526-.51-.02-2.362,0-4.725-.018-7.086,0-.393.084-.548.508-.533.872.031,1.745.018,2.618.005.288,0,.4.09.4.386q-.01,5.419,0,10.84c0,.352-.165.375-.439.374-2.1-.007-4.195,0-6.293,0s-4.194-.01-6.291.008C1122.462,993.881,1122.369,993.771,1122.37,993.4Z" fill="#fefefe"/>
    <path id="Path_1269" data-name="Path 1269" d="M1135.864,995.747q-.021,5.337,0,10.674c0,.341-.085.47-.446.459q-1.287-.036-2.577,0c-.374.011-.505-.085-.5-.486.019-2.363.009-4.725.009-7.088,0-.539,0-.54-.556-.54-1.788,0-3.576.014-5.364-.01-.423-.006-.552.1-.548.536.021,2.362,0,4.725.017,7.087,0,.374-.089.517-.49.5-.886-.03-1.774-.017-2.661-.005-.269,0-.371-.076-.37-.357q.01-5.444,0-10.886c0-.335.169-.351.422-.351q3.168.008,6.335,0c2.083,0,4.168.008,6.251-.008C1135.743,995.276,1135.865,995.369,1135.864,995.747Z" fill="#fefefe"/>
    <path id="Path_1270" data-name="Path 1270" d="M1140.755,995.641q-.009,5.442,0,10.885c0,.285-.116.354-.379.351-.914-.011-1.83-.018-2.745,0-.333.008-.394-.125-.392-.422.011-1.8.006-3.6.006-5.4,0-1.757.009-3.515-.008-5.273,0-.371.078-.521.484-.507.885.029,1.773.017,2.66.005C1140.65,995.278,1140.756,995.363,1140.755,995.641Z" fill="#fefefe"/>
    <path id="Path_1271" data-name="Path 1271" d="M1140.757,993.468c0,.3-.084.416-.406.408-.9-.021-1.8-.023-2.7,0-.357.009-.415-.133-.413-.442.011-1.8.006-3.6.006-5.393,0-1.77.007-3.54-.007-5.31,0-.34.085-.471.445-.463.885.022,1.771.018,2.657,0,.309,0,.418.1.417.409Q1140.744,988.073,1140.757,993.468Z" fill="#fefefe"/>
    <path id="Path_1272" data-name="Path 1272" d="M1135.862,993.5c0,.352-.165.375-.439.374-2.1-.007-4.195,0-6.293,0s-4.194-.01-6.291.008c-.377,0-.47-.107-.469-.474q.02-5.314,0-10.63c0-.38.095-.517.491-.505.857.027,1.717.023,2.575,0,.352-.008.459.11.456.457-.011,2.376.005,4.753-.015,7.128,0,.431.122.548.547.543q2.7-.035,5.4,0c.4,0,.529-.1.526-.51-.02-2.362,0-4.725-.018-7.086,0-.393.084-.548.508-.533.872.031,1.745.018,2.618.005.288,0,.4.09.4.386Q1135.85,988.078,1135.862,993.5Z" fill="#585858"/>
    <path id="Path_1273" data-name="Path 1273" d="M1135.862,1006.421c0,.341-.085.47-.446.459q-1.287-.036-2.577,0c-.374.011-.505-.085-.5-.486.019-2.363.009-4.725.009-7.088,0-.539,0-.54-.556-.54-1.788,0-3.576.014-5.364-.01-.423-.006-.552.1-.548.536.021,2.362,0,4.725.017,7.087,0,.374-.089.517-.49.5-.886-.03-1.774-.017-2.661-.005-.269,0-.371-.076-.37-.357q.01-5.444,0-10.886c0-.335.169-.351.422-.351q3.168.008,6.335,0c2.083,0,4.168.008,6.251-.008.363,0,.485.091.484.469Q1135.843,1001.084,1135.862,1006.421Z" fill="#585858"/>
    <path id="Path_1274" data-name="Path 1274" d="M1121,993.47c0,.312-.093.413-.41.406-.885-.019-1.772-.028-2.657,0-.4.014-.46-.139-.456-.487.014-1.784.007-3.568.007-5.352s.007-3.54-.007-5.31c0-.345.095-.467.45-.459.885.021,1.772.017,2.657,0,.309-.006.417.095.416.409Q1120.985,988.077,1121,993.47Z" fill="#585858"/>
    <path id="Path_1275" data-name="Path 1275" d="M1140.757,993.468c0,.3-.084.416-.406.408-.9-.021-1.8-.023-2.7,0-.357.009-.415-.133-.413-.442.011-1.8.006-3.6.006-5.393,0-1.77.007-3.54-.007-5.31,0-.34.085-.471.445-.463.885.022,1.771.018,2.657,0,.309,0,.418.1.417.409Q1140.744,988.073,1140.757,993.468Z" fill="#585858"/>
    <path id="Path_1276" data-name="Path 1276" d="M1121,1006.4c0,.36-.085.495-.468.483-.873-.028-1.747-.021-2.619,0-.318.006-.441-.073-.44-.419q.018-5.38,0-10.76c0-.3.072-.427.4-.42.9.02,1.8.022,2.7,0,.353-.008.422.134.42.447-.01,1.786-.005,3.572-.005,5.358S1120.984,1004.627,1121,1006.4Z" fill="#585858"/>
    <path id="Path_1277" data-name="Path 1277" d="M1140.755,1006.526c0,.285-.116.354-.379.351-.914-.011-1.83-.018-2.745,0-.333.008-.394-.125-.392-.422.011-1.8.006-3.6.006-5.4,0-1.757.009-3.515-.008-5.273,0-.371.078-.521.484-.507.885.029,1.773.017,2.66.005.269,0,.375.081.374.359Q1140.746,1001.083,1140.755,1006.526Z" fill="#585858"/>
  </g>
</svg>
