<svg xmlns="http://www.w3.org/2000/svg" width="134.114" height="36.084" viewBox="0 0 134.114 36.084">
  <g id="Group_606" data-name="Group 606" transform="translate(-688.53 -973.518)">
    <path id="Path_1187" data-name="Path 1187" d="M814.221,999a2.85,2.85,0,0,1-2.72,3.533,8.345,8.345,0,0,1-2.083-.017,9.62,9.62,0,0,0-1.221-.074q-42.618,0-85.24.026a3.913,3.913,0,0,1-3.1-1.407q-1.922-2.144-3.871-4.274c-1.507-1.646-3.031-3.27-4.529-4.919a1.1,1.1,0,0,0-.91-.386c-1.494.018-2.988.005-4.482.009a2.061,2.061,0,0,0-.545.039,3.485,3.485,0,0,1-2.4-.225,10.4,10.4,0,0,1-5.409-5.192,4.07,4.07,0,0,1-.411-2.148,2.01,2.01,0,0,1,1.035-1.642,4.2,4.2,0,0,1,1.814-.511c.325-.026.654-.021.983-.021h86.894a5.162,5.162,0,0,0,.736-.009,2.677,2.677,0,0,1,2.261.875c.225.208.441.424.645.654,2.655,3.005,5.417,5.911,8.12,8.873a1.3,1.3,0,0,0,1.069.446c2.373-.018,4.746.021,7.115-.022a4.549,4.549,0,0,1,3.252,1.2A8.362,8.362,0,0,1,814.221,999Z" fill="#4f4f4f"/>
    <path id="Path_1188" data-name="Path 1188" d="M822.643,1008.838V974.3c0-.926.052-.775-.792-.775q-66.269-.006-132.541,0c-.87,0-.775-.125-.775.788v34.471c0,.939-.117.809.818.809H821.894C822.7,1009.595,822.643,1009.725,822.643,1008.838Zm-4.126-2.456q-31.472.008-62.952.005-31.419,0-62.834-.005c-1.108,0-1,.113-1-.974q-.006-13.889,0-27.784c0-.983-.078-.9.883-.9H818.53c.948,0,.874-.091.874.91v27.848C819.4,1006.456,819.487,1006.382,818.517,1006.382Z" fill="#8e8e8e"/>
    <path id="Path_1189" data-name="Path 1189" d="M811.5,1002.532a8.345,8.345,0,0,1-2.083-.017,9.62,9.62,0,0,0-1.221-.074q-42.618,0-85.24.026a3.913,3.913,0,0,1-3.1-1.407q-1.922-2.144-3.871-4.274c-1.507-1.646-3.031-3.27-4.529-4.919a1.1,1.1,0,0,0-.91-.386c-1.494.018-2.988.005-4.482.009a2.061,2.061,0,0,0-.545.039,3.485,3.485,0,0,1-2.4-.225,10.4,10.4,0,0,1-5.409-5.192,4.07,4.07,0,0,1-.411-2.148,2.01,2.01,0,0,1,1.035-1.642,4.2,4.2,0,0,1,1.814-.511c.325-.026.654-.021.983-.021h86.894a5.162,5.162,0,0,0,.736-.009,2.677,2.677,0,0,1,2.261.875c.225.208.441.424.645.654,2.655,3.005,5.417,5.911,8.12,8.873a1.3,1.3,0,0,0,1.069.446c2.373-.018,4.746.021,7.115-.022a4.549,4.549,0,0,1,3.252,1.2,8.362,8.362,0,0,1,3,5.192A2.85,2.85,0,0,1,811.5,1002.532Z" fill="#a0a0a0"/>
    <path id="Path_1190" data-name="Path 1190" d="M811.5,1002.532a8.345,8.345,0,0,1-2.083-.017,9.62,9.62,0,0,0-1.221-.074q-42.618,0-85.24.026a3.913,3.913,0,0,1-3.1-1.407q-1.922-2.144-3.871-4.274c-1.507-1.646-3.031-3.27-4.529-4.919a1.1,1.1,0,0,0-.91-.386c-1.494.018-2.988.005-4.482.009a2.061,2.061,0,0,0-.545.039,3.485,3.485,0,0,1-2.4-.225,10.4,10.4,0,0,1-5.409-5.192,4.07,4.07,0,0,1-.411-2.148,2.01,2.01,0,0,1,1.035-1.642,4.2,4.2,0,0,1,1.814-.511c.325-.026.654-.021.983-.021h86.894a5.162,5.162,0,0,0,.736-.009,2.677,2.677,0,0,1,2.261.875c.225.208.441.424.645.654,2.655,3.005,5.417,5.911,8.12,8.873a1.3,1.3,0,0,0,1.069.446c2.373-.018,4.746.021,7.115-.022a4.549,4.549,0,0,1,3.252,1.2,8.362,8.362,0,0,1,3,5.192A2.85,2.85,0,0,1,811.5,1002.532Z" fill="#4f4f4f"/>
    <path id="Path_1191" data-name="Path 1191" d="M791.893,984.81c.181.287.5.478.626.8-.207.158-.425.069-.618.122-.107.028-.188.084-.181.207a.188.188,0,0,0,.2.188c.286.011.573.017.859.014a.546.546,0,0,1,.625.443c-.186.161-.4.091-.593.1-.245.013-.491,0-.736.008-.162.006-.36.005-.352.237s.22.2.373.2c.511.007,1.022.015,1.533,0a.68.68,0,0,1,.723.436c-.071.2-.236.138-.366.14-.532.007-1.063,0-1.595,0-.143,0-.286,0-.429.013s-.244.06-.233.219c.009.124.1.168.213.174.142.008.286.01.429.011.715,0,1.431.009,2.147,0a.671.671,0,0,1,.741.493.963.963,0,0,1-.608.089c-.756.006-1.513,0-2.269,0-.143,0-.287,0-.429.011-.106.007-.206.041-.221.167-.019.16.088.216.222.226.162.011.326.012.49.013.961,0,1.922,0,2.883,0,.23,0,.5-.058.647.267a.726.726,0,0,1-.52.095c-1.043.005-2.086-.006-3.129.01-.21,0-.584-.141-.579.231.005.311.354.193.554.2,1.268.011,2.535.008,3.8.005.342,0,.654.028.759.464a1.308,1.308,0,0,1-.659.073c-1.309.005-2.618,0-3.926.008-.2,0-.531-.111-.543.217-.013.351.326.229.519.23,1.575.01,3.15.014,4.724,0a.809.809,0,0,1,.883.544,1.448,1.448,0,0,1-.669.07c-1.574,0-3.149,0-4.724,0-.163,0-.327,0-.49.008-.13.006-.255.042-.245.2s.146.177.27.182c.164.007.327.007.491.007,1.7,0,3.4.035,5.091-.016a1.528,1.528,0,0,1,1.553.876.976.976,0,0,1-.635.084c-1.984.005-3.967,0-5.951,0-.184,0-.368,0-.551.014-.106.006-.2.049-.213.173-.013.164.108.207.235.216.183.014.368.015.552.015,2.085,0,4.172.031,6.257-.017a1.605,1.605,0,0,1,1.509.706,1.227,1.227,0,0,1,.288.431,1.328,1.328,0,0,1-.654.064q-3.773.006-7.546,0c-.183,0-.367.008-.55.022a.162.162,0,0,0-.148.166.155.155,0,0,0,.129.178,5.679,5.679,0,0,0,.61.036q4.08,0,8.159,0c.3,0,.624-.051.78.374a1.27,1.27,0,0,1-.653.074q-4.142,0-8.282,0c-.184,0-.368,0-.552.013a.18.18,0,0,0-.191.191.19.19,0,0,0,.205.183c.184.011.368.014.552.014,2.965,0,5.93.005,8.895,0,.415,0,.771.05.964.524a1,1,0,0,1-.637.086q-4.6.006-9.2,0c-.184,0-.369,0-.552.012-.134.009-.238.074-.227.228a.2.2,0,0,0,.207.184c.183.012.368.015.552.015q4.968,0,9.938,0c.359,0,.691.014.834.462a1.554,1.554,0,0,1-.734.076q-5,.006-10,0c-.184,0-.368.005-.552.007-.207,0-.277.141-.315.313a.564.564,0,0,1,.005.678c.014.2.061.364.318.349.163-.01.328,0,.491,0H804.13c.321,0,.671-.055.814.362-.083.177-.244.112-.373.12-.184.012-.368,0-.552,0H720.205a1.538,1.538,0,0,0-.245,0,1.042,1.042,0,0,1-1.094-.505,1.283,1.283,0,0,1-.288-.434c.211-.118.44-.046.649-.083.111-.019.2-.072.205-.189a.209.209,0,0,0-.216-.241,2.11,2.11,0,0,0-.489-.011c-.673.1-1.064-.245-1.406-.857a8.169,8.169,0,0,1,1.362-.054c.2-.009.409-.01.611-.035a.194.194,0,0,0,.006-.367,2.163,2.163,0,0,0-.426-.036c-.573,0-1.146-.009-1.718,0a.745.745,0,0,1-.643-.282,10.7,10.7,0,0,1-.917-1.055c.186-.193.4-.123.6-.125.859-.008,1.718,0,2.577-.005.163,0,.326-.012.488-.027a.164.164,0,0,0,.158-.158.174.174,0,0,0-.178-.2c-.163-.014-.327-.017-.49-.018-1.064,0-2.127-.016-3.19.007a.951.951,0,0,1-.893-.409c-.161-.232-.419-.388-.535-.662.2-.2.438-.117.651-.118,1.329-.008,2.658,0,3.988-.01.222,0,.614.112.621-.182.009-.4-.408-.22-.629-.222-1.452-.019-2.906-.049-4.356.006a1.513,1.513,0,0,1-1.547-.875c.178-.148.389-.084.579-.085,1.718-.005,3.436,0,5.154,0,.164,0,.328,0,.491-.005.137-.008.318.016.332-.182s-.165-.2-.3-.207c-.163-.01-.327-.006-.491-.006-1.943,0-3.886-.007-5.829.005a.793.793,0,0,1-.872-.549,1.539,1.539,0,0,1,.669-.064q3.067,0,6.136,0c.183,0,.367-.01.55-.026a.174.174,0,0,0,.155-.164.19.19,0,0,0-.145-.234,3.723,3.723,0,0,0-.549-.032q-3.437,0-6.872,0c-.361,0-.7-.013-.864-.457a1.1,1.1,0,0,1,.649-.081q3.5-.008,6.994,0c.164,0,.328,0,.491-.006s.3-.031.291-.229c-.009-.153-.136-.189-.265-.2-.184-.007-.368-.008-.552-.008q-3.8,0-7.608,0a1.117,1.117,0,0,1-.6-.071c-.067-.039-.136-.1-.1-.2a.143.143,0,0,1,.145-.087c.163-.005.327-.01.49-.01h7.731c.184,0,.368,0,.552-.017a.2.2,0,0,0,.205-.184.181.181,0,0,0-.187-.2c-.183-.014-.367-.019-.551-.019-2.822,0-5.645-.005-8.467,0a.817.817,0,0,1-.908-.511,1.091,1.091,0,0,1,.634-.072q4.356-.006,8.713,0c.183,0,.368,0,.551-.014a.181.181,0,0,0,.187-.2.194.194,0,0,0-.2-.19c-.183-.012-.367-.016-.551-.016q-4.632,0-9.265,0c-.4,0-.78-.013-.958-.518a1.454,1.454,0,0,1,.654-.058q4.816,0,9.633,0c.184,0,.368,0,.551-.02a.2.2,0,0,0,.032-.386,4.611,4.611,0,0,0-.61-.04q-5.124,0-10.247,0c-.333,0-.666.017-.85-.342a.525.525,0,0,1-.017-.146,1.635,1.635,0,0,1,.7-.058q5.215,0,10.43,0c.184,0,.369,0,.551-.02a.179.179,0,0,0,.175-.207.172.172,0,0,0-.152-.166,5.406,5.406,0,0,0-.61-.034c-3.6,0-7.2-.014-10.8.01a1.574,1.574,0,0,1-1.535-.651,1.026,1.026,0,0,0-.228-.2c.155-.264.408-.123.607-.123,3.148-.011,6.3-.008,9.446-.008q37.477,0,74.956,0A1.669,1.669,0,0,1,791.893,984.81Z" fill="#58595b"/>
    <path id="Path_1192" data-name="Path 1192" d="M705.734,984.446a5.9,5.9,0,0,1-.891-.981c.107-.188.266-.121.4-.13.162-.011.327,0,.49,0h83.822a2.508,2.508,0,0,0,.368,0,1.009,1.009,0,0,1,1.041.49,3.344,3.344,0,0,1,.435.589c-.17.176-.388.089-.581.089q-42.24.008-84.479,0A1.249,1.249,0,0,1,705.734,984.446Z" fill="#58595b"/>
    <path id="Path_1193" data-name="Path 1193" d="M807.172,1001.443a2.57,2.57,0,0,1-.816.06q-38.108.011-76.215.018c-2.557,0-5.114-.01-7.671.011a2.191,2.191,0,0,1-1.66-.743c.1-.217.259-.14.387-.151.163-.013.327,0,.491,0h83.825a1.834,1.834,0,0,0,.306,0C806.476,1000.519,806.823,1000.914,807.172,1001.443Z" fill="#58595b"/>
    <path id="Path_1194" data-name="Path 1194" d="M719.926,999.713a2.141,2.141,0,0,1,.879-.071q36.9,0,73.8,0,5.215,0,10.429,0c.357,0,.7,0,.856.41-.09.175-.248.119-.379.128s-.286,0-.429,0H721.1c-.184,0-.368-.005-.552,0A.576.576,0,0,1,719.926,999.713Z" fill="#58595b"/>
    <path id="Path_1195" data-name="Path 1195" d="M789.641,982.861q-42.644,0-85.287,0c-.082,0-.154-.047-.2-.189.174-.146.4-.086.6-.086q3.712-.009,7.425-.006l64.617-.015q6.105,0,12.211-.014A.593.593,0,0,1,789.641,982.861Z" fill="#58595b"/>
    <path id="Path_1196" data-name="Path 1196" d="M791.893,984.81c-.286,0-.572,0-.858,0q-41.95,0-83.9,0a3,3,0,0,0-1.034.07.7.7,0,0,1,.561-.192c.164,0,.327,0,.491,0q41.859,0,83.72,0A1.878,1.878,0,0,1,791.893,984.81Z" fill="#4f4f4f"/>
    <path id="Path_1197" data-name="Path 1197" d="M705.734,984.446c.327-.005.654-.015.981-.015l83.7,0c.327,0,.654-.013.981-.02a.854.854,0,0,1-.58.153h-.552q-41.723,0-83.446,0A2.182,2.182,0,0,1,705.734,984.446Z" fill="#4f4f4f"/>
    <path id="Path_1198" data-name="Path 1198" d="M704.483,987.65a1.7,1.7,0,0,1-.788.085c-1.163.006-2.327-.007-3.49.009a.819.819,0,0,1-.777-.375c-.179-.273-.388-.526-.555-.8s-.123-.367.194-.38c.387-.017.775-.007,1.163-.007.837,0,1.674.017,2.51-.008a1.05,1.05,0,0,1,.907.4A4.347,4.347,0,0,1,704.483,987.65Z" fill="#58595b"/>
    <path id="Path_1199" data-name="Path 1199" d="M809.421,997.072h2.992a.37.37,0,0,1,.4.216,4.4,4.4,0,0,1,.436,1.579c.008.647-.312.9-.935.744a3.109,3.109,0,0,1-.941-.429,7.584,7.584,0,0,1-1.867-1.742A.36.36,0,0,1,809.421,997.072Z" fill="#58595b"/>
    <path id="Path_1200" data-name="Path 1200" d="M801.044,993.511a.81.81,0,0,1,.558-.111q2.5-.006,5.011,0c.122,0,.244,0,.366.008.175.007.261.1.244.273-.014.142-.041.283-.047.425-.013.285-.168.38-.437.379q-2.23-.007-4.461,0a.622.622,0,0,1-.5-.187C801.55,994.042,801.311,993.794,801.044,993.511Z" fill="#58595b"/>
    <path id="Path_1201" data-name="Path 1201" d="M791.663,998.344l-.005-.678a1.219,1.219,0,0,0,.773.113q5.425,0,10.849,0c.322,0,.673-.056.831.373-.2.2-.457.118-.687.118-2.492.007-4.985,0-7.477,0h-3.555A2.107,2.107,0,0,0,791.663,998.344Z" fill="#58595b"/>
    <path id="Path_1202" data-name="Path 1202" d="M700.268,988.307a.434.434,0,0,1,.412-.149q1.871,0,3.741,0c.223,0,.459-.025.6.214a2.309,2.309,0,0,1,.382.959c.013.162-.155.162-.274.165-.348.006-.7.006-1.043.006-.634,0-1.268-.012-1.9.005a1.31,1.31,0,0,1-.9-.3A9.977,9.977,0,0,1,700.268,988.307Z" fill="#58595b"/>
    <path id="Path_1203" data-name="Path 1203" d="M702.518,985.679c-.024.019-.054.062-.084.062-1.221.008-2.442.011-3.663.016a.4.4,0,0,1-.426-.351,2.01,2.01,0,0,1-.086-.6.7.7,0,0,1,.669-.735,2.15,2.15,0,0,1,.849.046,7.326,7.326,0,0,1,2.686,1.4A.136.136,0,0,1,702.518,985.679Z" fill="#58595b"/>
    <path id="Path_1204" data-name="Path 1204" d="M811.156,995.134c-.889,0-1.777,0-2.666,0a.369.369,0,0,1-.223-.081,1.575,1.575,0,0,1-.019-1.5.7.7,0,0,1,.746-.094,5.27,5.27,0,0,1,2.216,1.517Z" fill="#58595b"/>
    <path id="Path_1205" data-name="Path 1205" d="M812.324,996.606c-1.1,0-2.134.007-3.169-.006-.248,0-.693-.614-.66-.856a.163.163,0,0,1,.167-.143c.142-.009.284-.016.426-.017h1.955C811.863,995.585,812,995.688,812.324,996.606Z" fill="#58595b"/>
    <path id="Path_1206" data-name="Path 1206" d="M709.023,989.5c-.782,0-1.551,0-2.32,0a.345.345,0,0,1-.388-.3,1.64,1.64,0,0,0-.111-.348c-.293-.658-.317-.7.522-.7,1.313,0,1.314,0,2.163.984A.4.4,0,0,1,709.023,989.5Z" fill="#58595b"/>
    <path id="Path_1207" data-name="Path 1207" d="M704.566,986.187c.54,0,.981,0,1.421,0a.441.441,0,0,1,.317.167c.372.4.742.807,1.123,1.222a3.984,3.984,0,0,1-1.689.122.386.386,0,0,1-.142-.11C705.272,987.154,704.953,986.715,704.566,986.187Z" fill="#58595b"/>
    <path id="Path_1208" data-name="Path 1208" d="M807.657,996.293a.884.884,0,0,1-.533.076c-.981,0-1.962-.009-2.943.007a.833.833,0,0,1-.892-.488c.082-.18.244-.129.376-.129,1.124,0,2.248-.008,3.372,0C807.538,995.762,807.538,995.774,807.657,996.293Z" fill="#58595b"/>
    <path id="Path_1209" data-name="Path 1209" d="M807.495,1000.3a27.32,27.32,0,0,1,5.554.256c-.022.23-.2.234-.36.234q-2.294,0-4.587,0C807.831,1000.794,807.647,1000.679,807.495,1000.3Z" fill="#58595b"/>
    <path id="Path_1210" data-name="Path 1210" d="M804.842,994.9c.631,0,1.262,0,1.893,0a1.6,1.6,0,0,1,.421.047.232.232,0,0,1,.15.243c0,.129-.109.156-.214.164s-.2.01-.3.01h-3.6a2.575,2.575,0,0,1-.3-.013c-.18-.023-.338-.132-.334-.3.005-.192.211-.147.342-.148.651-.006,1.3,0,1.954,0Z" fill="#58595b"/>
    <path id="Path_1211" data-name="Path 1211" d="M804.236,996.807h1.616c.571,0,1.143,0,1.714,0a1.178,1.178,0,0,1,.422.047.329.329,0,0,1,.227.385c-.039.142-.2.1-.318.1-.98,0-1.96,0-2.939,0C804.636,997.35,804.421,997.221,804.236,996.807Z" fill="#58595b"/>
    <path id="Path_1212" data-name="Path 1212" d="M805.228,997.909c.084-.121.192-.1.288-.1.94,0,1.88,0,2.82-.006.293,0,.519.068.618.359-.068.171-.206.133-.318.134-.919,0-1.839,0-2.759,0C805.574,998.3,805.313,998.245,805.228,997.909Z" fill="#58595b"/>
    <path id="Path_1213" data-name="Path 1213" d="M806.063,998.827a.7.7,0,0,1,.517-.115c.835,0,1.671-.007,2.506,0,.456,0,.456.015.7.408a.323.323,0,0,1-.277.084c-.937,0-1.874,0-2.811,0A.572.572,0,0,1,806.063,998.827Z" fill="#58595b"/>
    <path id="Path_1214" data-name="Path 1214" d="M705.618,985.739c-.943.114-1.81.168-2.359-.743A1.749,1.749,0,0,1,705.618,985.739Z" fill="#58595b"/>
    <path id="Path_1215" data-name="Path 1215" d="M702.726,989.959c.848,0,1.7-.008,2.544.005.241,0,.311.153.208.367a.718.718,0,0,1-.709.382,4.177,4.177,0,0,1-2.063-.619Z" fill="#58595b"/>
    <path id="Path_1216" data-name="Path 1216" d="M710.422,990.916a3.7,3.7,0,0,1-.964.052q-1.47.008-2.94,0c-.11,0-.274.027-.271-.152a.245.245,0,0,1,.243-.231c.08-.009.162-.012.244-.013q1.562,0,3.123,0C710.088,990.568,710.306,990.583,710.422,990.916Z" fill="#58595b"/>
    <path id="Path_1217" data-name="Path 1217" d="M701.72,983.923a12.489,12.489,0,0,1,2.1-.024c.242.012.4.184.5.448a3.975,3.975,0,0,1-1.3.1A1.493,1.493,0,0,1,701.72,983.923Z" fill="#58595b"/>
    <path id="Path_1218" data-name="Path 1218" d="M808.66,1001.253h3.432C811.549,1001.749,809.669,1001.786,808.66,1001.253Z" fill="#58595b"/>
    <path id="Path_1219" data-name="Path 1219" d="M810.722,999.806a13.894,13.894,0,0,1-3.73-.045A11.069,11.069,0,0,1,810.722,999.806Z" fill="#58595b"/>
    <path id="Path_1220" data-name="Path 1220" d="M702.7,982.837h-3.37A5.227,5.227,0,0,1,702.7,982.837Z" fill="#58595b"/>
    <path id="Path_1221" data-name="Path 1221" d="M709.579,990.069h-2.963v-.086h2.955Z" fill="#58595b"/>
    <path id="Path_1222" data-name="Path 1222" d="M700.587,983.355h2.728v.069h-2.751Z" fill="#58595b"/>
    <path id="Path_1223" data-name="Path 1223" d="M774.6,991.848c.142,1.662.108,3.276.108,4.889,0,.868.1.885-.858.882-.491,0-.982-.01-1.472,0-.314.006-.454-.132-.442-.441,0-.123,0-.245,0-.368v-9.567c0-.143.007-.286.005-.429-.005-.289.145-.4.421-.392.593.007,1.187.021,1.779-.006a.715.715,0,0,1,.757.467c.637,1.282,1.3,2.551,1.951,3.824.26.507.522,1.013.823,1.6a1.051,1.051,0,0,0,.088-.692c-.106-1.47-.075-2.942-.078-4.414,0-.143,0-.286,0-.429a.3.3,0,0,1,.334-.342c.7,0,1.39,0,2.085,0,.264,0,.364.137.358.383,0,.123,0,.246,0,.368q0,4.815,0,9.629c0,.163,0,.327-.009.49a.284.284,0,0,1-.3.309c-.736.005-1.472.007-2.208,0-.28,0-.344-.259-.444-.452q-.9-1.743-1.8-3.489c-.252-.491-.5-.984-.758-1.472C774.873,992.072,774.853,991.91,774.6,991.848Z" fill="#8e8e8e"/>
    <path id="Path_1224" data-name="Path 1224" d="M741.567,991.643c.023.044.033.095.063.112a2.625,2.625,0,0,1,1.266,2.311,4.163,4.163,0,0,1-.165,1.455,2.807,2.807,0,0,1-2.636,2.034,12.394,12.394,0,0,1-1.469.061c-1.042.008-2.085.006-3.127,0-.66,0-.671-.011-.671-.636q0-4.967,0-9.931c0-.617.008-.634.607-.624,1.512.025,3.025-.082,4.534.07l.061.007a2.791,2.791,0,0,1,1.933,4.615C741.832,991.3,741.64,991.429,741.567,991.643Z" fill="#8e8e8e"/>
    <path id="Path_1225" data-name="Path 1225" d="M759.723,992.044v4.72c0,.164-.006.327-.006.491,0,.22-.1.351-.328.353q-1.1.006-2.207,0c-.357,0-.361-.257-.361-.513q0-1.471,0-2.943c0-.949.031-.858-.866-.863-.409,0-.818,0-1.227,0-.627.006-.631.008-.633.662,0,1.022,0,2.044,0,3.066,0,.635-.007.638-.656.643-.593,0-1.186-.008-1.779,0-.313,0-.448-.139-.436-.445.005-.143,0-.286,0-.429q0-4.751,0-9.5c0-.082,0-.164,0-.246.014-.595.026-.611.631-.616s1.186-.01,1.778,0c.421.008.455.04.46.461.012.817.005,1.635.005,2.452,0,.143-.005.287,0,.429.023.419.03.434.477.442q.889.015,1.779,0c.424-.008.456-.035.463-.455.012-.756,0-1.512.006-2.268.008-1.224-.12-1.049,1.095-1.064.429,0,.859-.007,1.288,0,.49.01.514.03.517.53.007,1.308,0,2.616,0,3.924Z" fill="#8e8e8e"/>
    <path id="Path_1226" data-name="Path 1226" d="M761.781,990.39c0-1.124-.005-2.249,0-3.373,0-.576.018-.586.589-.593s1.146-.007,1.718,0c.538.007.555.02.558.552.007,1.207,0,2.413,0,3.62,0,.9,0,1.8,0,2.7a3.307,3.307,0,0,0,.146,1.028,1.275,1.275,0,0,0,2.387.051,3.315,3.315,0,0,0,.173-1.207q0-2.853,0-5.705c0-.164,0-.328,0-.491.014-.529.02-.54.565-.547q.89-.011,1.779,0c.533.007.554.023.556.558.007,1.492,0,2.985,0,4.478a23.64,23.64,0,0,1-.086,2.634,6.214,6.214,0,0,1-.4,1.664,3.172,3.172,0,0,1-2.26,1.983,6.093,6.093,0,0,1-2.976.009,3.175,3.175,0,0,1-2.3-2.017,5.722,5.722,0,0,1-.423-2.031c-.019-1.1-.005-2.208-.005-3.312Z" fill="#8e8e8e"/>
    <path id="Path_1227" data-name="Path 1227" d="M784.268,993.458c0-1.164,0-2.329,0-3.493,0-.6-.009-.6-.625-.606-.51,0-1.022-.013-1.532,0-.32.008-.433-.134-.429-.439.009-.653-.005-1.307,0-1.961.007-.519.021-.534.575-.535q2.85-.008,5.7,0c.45,0,.9.008,1.349,0,.279,0,.415.112.413.4q-.006,1.072,0,2.145c0,.289-.139.4-.415.391-.531-.007-1.063,0-1.594,0-.565.007-.576.013-.578.592,0,2.166,0,4.331,0,6.5,0,.266-.006.531-.005.8s-.134.367-.38.367c-.7,0-1.39.013-2.084-.005-.357-.01-.389-.064-.392-.534-.007-1.205,0-2.41,0-3.615Z" fill="#8e8e8e"/>
    <path id="Path_1228" data-name="Path 1228" d="M728.574,990.607c0,1.185.01,2.37,0,3.555a4.822,4.822,0,0,1-.371,1.729,3.008,3.008,0,0,1-2.286,1.927,7.09,7.09,0,0,1-2.136.086,3.8,3.8,0,0,1-2.528-1.475.25.25,0,0,1-.007-.379q.669-.715,1.342-1.43a.233.233,0,0,1,.372-.01c.1.1.208.2.318.287a2.067,2.067,0,0,0,.865.445,1.157,1.157,0,0,0,1.584-1.172c.018-.244.012-.49.012-.736q0-3.156,0-6.313c0-.694.005-.7.721-.7.552,0,1.1-.009,1.656,0,.443.009.488.048.491.5.01,1.226,0,2.452,0,3.678Z" fill="#8e8e8e"/>
    <path id="Path_1229" data-name="Path 1229" d="M743.662,996.4a1.513,1.513,0,1,1,3.025-.018,1.547,1.547,0,0,1-1.478,1.509A1.525,1.525,0,0,1,743.662,996.4Z" fill="#8e8e8e"/>
    <path id="Path_1230" data-name="Path 1230" d="M731.9,996.381a1.5,1.5,0,1,1-1.5-1.509A1.462,1.462,0,0,1,731.9,996.381Z" fill="#8e8e8e"/>
    <path id="Path_1231" data-name="Path 1231" d="M737.73,993.932c.011-1.006-.159-.992.991-.976a4.531,4.531,0,0,1,.669.061,1,1,0,0,1-.046,1.978c-.4.037-.814.014-1.221.023-.288.007-.4-.142-.394-.414C737.734,994.38,737.73,994.156,737.73,993.932Z" fill="#58595b"/>
    <path id="Path_1232" data-name="Path 1232" d="M737.729,989.966c0-.907,0-.908.892-.9.143,0,.286,0,.429.007.591.039.806.233.843.752a.886.886,0,0,1-.717,1.048,4.784,4.784,0,0,1-1.036.047c-.279.007-.42-.114-.412-.4C737.732,990.333,737.729,990.15,737.729,989.966Z" fill="#58595b"/>
  </g>
</svg>
