<svg xmlns="http://www.w3.org/2000/svg" width="41.529" height="45.33" viewBox="0 0 41.529 45.33">
  <g id="Group_610" data-name="Group 610" transform="translate(-995.344 -969.279)">
    <path id="Path_1278" data-name="Path 1278" d="M1034.055,985.847c-.014.069-.014.173-.125.18-.076-.118-.125.007-.159.028-.6.415-1.179.831-1.768,1.247l-7.32,5.22a.276.276,0,0,0-.139.388c.305.874.6,1.761.894,2.641.021.07.014.153.118.174.007.124-.111.138-.187.18-.658.34-1.345.631-2.031.908a31.407,31.407,0,0,1-5.365,1.574c-1.449.291-2.912.512-4.381.672-.881.09-1.754.173-2.641.208a25.254,25.254,0,0,1-3.231-.111c-.637-.049-1.268-.132-1.9-.243-.076-.014-.166-.014-.187-.124.222-.7.443-1.4.665-2.094.395-1.275.784-2.558,1.186-3.826a.259.259,0,0,0-.111-.34q-5.48-4.284-10.953-8.582a.3.3,0,0,1-.124-.111c.027-.062.083-.034.117-.034h7.7c.048.1-.035.145-.09.194-.423.367-.839.735-1.227,1.137-.153.166-.319.312-.472.471a8,8,0,0,1,.846-.749c.5-.381,1.005-.748,1.525-1.095.056-.041.111-.09.187-.055a.594.594,0,0,0,.153.014h.007c.1,0,.208-.014.312-.014h5.448c.229-.007.3-.049.374-.264.208-.547.416-1.095.624-1.65.188-.506.375-1.012.562-1.511a.041.041,0,0,0,.007-.027.135.135,0,0,0,.021-.07,3.322,3.322,0,0,1,.464-1.019c.007-.007.007-.007.007-.014.25-.582.45-1.164.665-1.753,1-2.655,1.983-5.317,2.974-7.972a1.406,1.406,0,0,1,.07-.146c.069.042.076.118.1.18q1.465,3.932,2.932,7.854c.035.1.048.229.208.208.062.285.187.555.277.832.035.111.118.2.146.319.006.007.006.014.006.028s.007.014.007.021a.1.1,0,0,1-.055-.049c-.1.069-.028.146,0,.208.575,1.56,1.158,3.106,1.726,4.658.076.194.16.271.367.264q5.667-.011,11.327-.007h.181c.055,0,.1-.014.11-.076a.133.133,0,0,1-.062-.028.119.119,0,0,0,.049-.007h.02c.084.021.1.1.111.166A4.226,4.226,0,0,1,1034.055,985.847Z" fill="#4f4f4f"/>
    <path id="Path_1279" data-name="Path 1279" d="M1025.662,996.213q.6,1.793,1.2,3.587,1.261,3.768,2.525,7.535c.021.065.04.131.062.2-.087.015-.127-.045-.175-.078l-11.757-8.1a.413.413,0,0,0-.3-.122c-.006-.114.089-.107.156-.123.632-.152,1.263-.309,1.889-.483a29.186,29.186,0,0,0,4.7-1.67c.5-.237,1-.491,1.5-.74C1025.527,996.19,1025.591,996.132,1025.662,996.213Z" fill="#4f4f4f"/>
    <path id="Path_1280" data-name="Path 1280" d="M1025.662,996.213a27.29,27.29,0,0,1-3.565,1.62,40.929,40.929,0,0,1-4.681,1.358c-.067.015-.142,0-.2.047l-2.19.431a4.394,4.394,0,0,1-1.368.283c-.9.123-1.81.194-2.718.256-1.23.084-2.459.069-3.689.055a14.752,14.752,0,0,1-1.767-.14.311.311,0,0,1-.226-.115,18.822,18.822,0,0,1-1.911-.383,10.417,10.417,0,0,1-4.737-2.532,7.006,7.006,0,0,1-2.072-4.161,6.131,6.131,0,0,1,1.247-4.55,12.669,12.669,0,0,1,1.425-1.645.181.181,0,0,1,.134-.079c-.055.08-.1.143-.145.207a10.5,10.5,0,0,0-1.536,2.838,5.942,5.942,0,0,0,1.375,6.029,7.8,7.8,0,0,0,2.569,1.824,15.552,15.552,0,0,0,4.032,1.232,18.622,18.622,0,0,0,1.9.271,27.512,27.512,0,0,0,2.87.139,27.793,27.793,0,0,0,3.023-.209c1.385-.154,2.765-.348,4.134-.613a30.616,30.616,0,0,0,7.746-2.529c.083-.04.165-.082.248-.123a36.407,36.407,0,0,0,5.221-3.231c.5-.363.986-.737,1.479-1.106.045-.033.082-.083.144-.092a22.155,22.155,0,0,1-3.193,2.674A33.754,33.754,0,0,1,1025.662,996.213Z" fill="#8e8e8e"/>
    <path id="Path_1281" data-name="Path 1281" d="M1004.275,1012.646c-.138-1.117-.284-2.219-.423-3.328-.02-.152-.083-.2-.235-.2q-.854.021-1.706,0a.3.3,0,0,0-.3.187c-.672,1.31-1.365,2.628-2.052,3.938-.173.339-.353.686-.54,1.026a.053.053,0,0,1-.028-.014c.069-.409.139-.811.229-1.213.028-.146.007-.215-.167-.208-.422.014-.831,0-1.254.007-.153,0-.187-.042-.16-.194.208-1.117.409-2.233.624-3.342.028-.145-.014-.187-.152-.18-.465.007-.929,0-1.394,0-.395,0-.395,0-.471.395-.3,1.6-.589,3.182-.887,4.776-.021.118-.021.194.138.194,1.782-.006,3.57-.006,5.352-.006.111,0,.173-.028.208-.132.055-.153.131-.3.187-.451a.154.154,0,0,1,.166-.125c.34.007.687.007,1.026,0,.1,0,.146.049.146.146.007.132.028.263.028.4,0,.111.034.166.159.16h1.6c.118,0,.153-.028.132-.153C1004.421,1013.768,1004.351,1013.207,1004.275,1012.646Zm-1.948-.146h-.36c-.118.007-.132-.042-.083-.132.194-.464.4-.922.561-1.407,0,.458.035.915.056,1.373C1002.508,1012.465,1002.459,1012.514,1002.327,1012.5Z" fill="#8e8e8e"/>
    <path id="Path_1282" data-name="Path 1282" d="M1005.257,1000.008a27.227,27.227,0,0,0,4.329.172,38.722,38.722,0,0,0,5.319-.5c.04-.007.08-.009.12-.013-.43.274-.859.551-1.292.821l-10.425,6.5a.385.385,0,0,1-.2.1.451.451,0,0,1,.047-.219q1.024-3.321,2.05-6.641C1005.226,1000.155,1005.239,1000.081,1005.257,1000.008Z" fill="#4f4f4f"/>
    <path id="Path_1283" data-name="Path 1283" d="M1034.97,985.188a10.749,10.749,0,0,1-2.787,4.222,10.086,10.086,0,0,0,1.747-3.383,4.187,4.187,0,0,0,.049-1.962l-.084-.346a.133.133,0,0,1-.062-.028.119.119,0,0,0,.049-.007,3.1,3.1,0,0,0-.451-1.144,7.179,7.179,0,0,0-3.154-2.655,19.145,19.145,0,0,0-5.788-1.359,14.691,14.691,0,0,0-4.263.146c.006.007.006.014.006.028s.007.014.007.021a.1.1,0,0,1-.055-.049c-.083-.014-.1-.083-.125-.146-.1-.277-.208-.554-.319-.838-.034-.083-.034-.139.063-.167a24.786,24.786,0,0,1,4.18-.277,17.032,17.032,0,0,1,7.251,1.629,8,8,0,0,1,2.876,2.225,4.941,4.941,0,0,1,1.047,2.309,2.261,2.261,0,0,1,.028.312A1.776,1.776,0,0,1,1034.97,985.188Z" fill="#8e8e8e"/>
    <path id="Path_1284" data-name="Path 1284" d="M1008.7,1011.812q.179-.966.358-1.931c.037-.2.076-.4.108-.6a.158.158,0,0,1,.182-.158c.529,0,1.058.006,1.587,0,.161,0,.2.052.17.207q-.339,1.8-.669,3.6c-.087.468-.177.936-.258,1.4-.02.113-.064.157-.181.156-.546-.005-1.092-.007-1.638,0a.212.212,0,0,1-.235-.173q-.42-1.191-.85-2.379c-.015-.041-.016-.092-.08-.126-.038.369-.09.727-.155,1.084-.087.474-.174.948-.255,1.423a.173.173,0,0,1-.2.171q-.8-.012-1.6,0c-.158,0-.181-.051-.154-.2q.467-2.5.922-5c.022-.122.072-.165.194-.164.546,0,1.092.005,1.638,0a.2.2,0,0,1,.223.167C1008.083,1010.13,1008.425,1010.951,1008.7,1011.812Z" fill="#8e8e8e"/>
    <path id="Path_1285" data-name="Path 1285" d="M1014.8,1009.221a17.5,17.5,0,0,0-2.558-.1c-.125-.007-.139.076-.153.173-.312,1.664-.61,3.335-.922,5-.034.167.014.194.16.188h1.109a8.231,8.231,0,0,0,1.913-.139,2.847,2.847,0,0,0,2.378-2.911A2.223,2.223,0,0,0,1014.8,1009.221Zm-1.31,3.653c-.083,0-.118-.034-.1-.118.111-.63.228-1.261.346-1.9.014-.09.069-.111.16-.111a.867.867,0,0,1,.873.929A1.2,1.2,0,0,1,1013.495,1012.874Z" fill="#8e8e8e"/>
    <path id="Path_1286" data-name="Path 1286" d="M1035.351,1012.389a1.567,1.567,0,0,0,1.179-1.442,1.432,1.432,0,0,0-.929-1.587,3.1,3.1,0,0,0-1-.215c-.77-.042-1.533-.014-2.3-.021-.139-.007-.194.042-.215.18-.312,1.664-.61,3.335-.929,5-.02.139,0,.187.146.181h1.587c.132.006.18-.042.2-.174.1-.561.208-1.123.319-1.684h.035a1.776,1.776,0,0,1,.055.18c.153.506.312,1.012.458,1.518.028.125.083.166.215.16h1.622c.152.006.187-.028.132-.181-.229-.575-.437-1.15-.659-1.726C1035.233,1012.472,1035.233,1012.424,1035.351,1012.389Zm-1.047-.977a1.111,1.111,0,0,1-.436.083c-.257.021-.264.021-.222-.208s.1-.444.125-.666c.02-.124.076-.166.2-.152.076.007.159.007.242.021.25.041.368.152.4.367A.521.521,0,0,1,1034.3,1011.412Z" fill="#8e8e8e"/>
    <path id="Path_1287" data-name="Path 1287" d="M1030.187,1009.318c-.014-.152-.07-.2-.215-.2q-.873.021-1.747,0a.262.262,0,0,0-.263.173c-.326.638-.659,1.269-.992,1.907q-.82,1.56-1.629,3.119c-.048.09-.1.173.07.167h1.8a.171.171,0,0,0,.187-.118c.056-.16.125-.312.187-.472a.164.164,0,0,1,.167-.118c.346,0,.686.007,1.033,0,.117,0,.152.049.152.16s.014.256.014.381.056.173.18.167h1.553c.139.006.18-.028.166-.174Q1030.512,1011.814,1030.187,1009.318Zm-1.352,3.029c.007.111-.035.16-.145.153h-.382c-.1.007-.131-.028-.09-.125a14.158,14.158,0,0,0,.548-1.386h.069Z" fill="#8e8e8e"/>
    <path id="Path_1288" data-name="Path 1288" d="M1019.132,1014.607a3.473,3.473,0,0,1-2.235-.747c-.28-.209-.28-.21-.082-.5.223-.326.451-.65.667-.98.074-.113.119-.126.213-.018a1.877,1.877,0,0,0,1.108.677.669.669,0,0,0,.41-.031.165.165,0,0,0,.039-.3,1.394,1.394,0,0,0-.384-.2,4.117,4.117,0,0,1-.653-.328,1.577,1.577,0,0,1-.481-2.237,1.82,1.82,0,0,1,1.034-.786,3.008,3.008,0,0,1,2.705.418c.118.082.125.148.054.267q-.3.492-.571,1c-.074.139-.131.135-.24.04a1.994,1.994,0,0,0-.62-.383.8.8,0,0,0-.393-.052.235.235,0,0,0-.207.165.212.212,0,0,0,.092.228,1.38,1.38,0,0,0,.33.193c.189.089.383.168.564.272a1.592,1.592,0,0,1,.5,2.392,2.2,2.2,0,0,1-1.611.9C1019.294,1014.6,1019.213,1014.6,1019.132,1014.607Z" fill="#8e8e8e"/>
    <path id="Path_1289" data-name="Path 1289" d="M1022.233,1010.752c-.151,0-.3,0-.453,0-.088,0-.114-.036-.1-.117.089-.468.179-.936.267-1.4a.118.118,0,0,1,.134-.106c.041,0,.081,0,.122,0h3.732c.24,0,.24,0,.2.231-.076.4-.159.809-.225,1.217-.022.136-.071.188-.211.182-.238-.01-.477.008-.715-.006-.167-.011-.231.044-.26.211-.195,1.092-.4,2.183-.6,3.274-.046.25-.045.251-.307.251-.5,0-1-.006-1.5,0-.167,0-.193-.054-.165-.206.21-1.113.41-2.228.621-3.341.028-.15,0-.2-.155-.19-.127.01-.256,0-.384,0Z" fill="#8e8e8e"/>
    <path id="Path_1290" data-name="Path 1290" d="M1012.857,979.153c-.106.29-.213.581-.317.872a.272.272,0,0,1-.106.13c-.029.12-.14.13-.23.159-.774.251-1.54.523-2.291.837a29.3,29.3,0,0,0-4.549,2.381,1.036,1.036,0,0,1-.522.229,31.793,31.793,0,0,0-2.693,2.017,5.047,5.047,0,0,1,.575-.686c.431-.463.91-.874,1.384-1.291a24.353,24.353,0,0,1,2.286-1.622,31.751,31.751,0,0,1,6.38-3.006C1012.8,979.164,1012.83,979.16,1012.857,979.153Z" fill="#8e8e8e"/>
    <path id="Path_1291" data-name="Path 1291" d="M1034.972,985.188a4.8,4.8,0,0,0,.212-1.471c.036.092.117.08.191.08.429,0,.858,0,1.287,0a.285.285,0,0,1,.211.041Z" fill="#818181"/>
    <path id="Path_1292" data-name="Path 1292" d="M1033.882,983.684a.119.119,0,0,1-.049.007.133.133,0,0,0,.062.028A.052.052,0,0,0,1033.882,983.684Zm-13.656-5.012h-.042a.1.1,0,0,0,.055.049c0-.007-.007-.014-.007-.021S1020.232,978.679,1020.226,978.672Z" fill="#fefefe"/>
  </g>
</svg>
