<svg xmlns="http://www.w3.org/2000/svg" width="18.915" height="18.912" viewBox="0 0 18.915 18.912">
  <g id="Group_563" data-name="Group 563" transform="translate(-1765.381 -91.163)">
    <g id="Group_560" data-name="Group 560">
      <path id="Path_1156" data-name="Path 1156" d="M1783.625,96.332v8.577c-.028.18-.047.362-.087.539a4.787,4.787,0,0,1-3.618,3.812c-.257.071-.525.1-.788.144h-8.576c-.055-.011-.11-.024-.166-.031a4.306,4.306,0,0,1-1.386-.365,4.732,4.732,0,0,1-2.932-4.475c-.037-2.607-.01-5.214-.008-7.822a4.6,4.6,0,0,1,.616-2.378A4.767,4.767,0,0,1,1771,91.841c2.561-.013,5.122-.006,7.683,0a4.665,4.665,0,0,1,.988.089,4.766,4.766,0,0,1,3.806,3.612C1783.552,95.8,1783.578,96.069,1783.625,96.332Zm-1.557,4.306q0-1.913,0-3.824a3.509,3.509,0,0,0-.177-1.181,3.287,3.287,0,0,0-3.219-2.237c-2.549,0-5.1-.008-7.647.007a3.756,3.756,0,0,0-1.16.177,3.249,3.249,0,0,0-2.244,3.208c0,2.555-.008,5.11.007,7.666a3.711,3.711,0,0,0,.175,1.143,3.244,3.244,0,0,0,3.187,2.248q3.858.009,7.716,0a3.245,3.245,0,0,0,2.749-1.387,3.3,3.3,0,0,0,.614-2.013Q1782.066,102.542,1782.068,100.638Z" fill="#ccc"/>
      <path id="Path_1157" data-name="Path 1157" d="M1779.191,110.075l-8.875-.034a4.97,4.97,0,0,1-1.6-.426,5.415,5.415,0,0,1-3.316-5.073c-.027-1.886-.02-3.8-.014-5.654,0-.725.005-1.452.006-2.177a5.271,5.271,0,0,1,.709-2.718,5.4,5.4,0,0,1,4.9-2.823c2.514-.013,5.067-.006,7.535,0h.154a5.2,5.2,0,0,1,1.13.105,5.408,5.408,0,0,1,4.309,4.087,5.252,5.252,0,0,1,.12.618c.012.078.024.156.038.234l.01.117-.008,8.682-.023.159c-.02.141-.041.283-.072.422a5.432,5.432,0,0,1-4.094,4.311,5.341,5.341,0,0,1-.613.121c-.079.011-.157.024-.236.038Zm-8.567-1.342h8.45q.105-.018.21-.033a3.884,3.884,0,0,0,.455-.087,4.122,4.122,0,0,0,3.144-3.313c.024-.1.038-.209.052-.315l.019-.124V96.39c-.012-.069-.022-.139-.033-.208a4.014,4.014,0,0,0-.086-.46,4.1,4.1,0,0,0-3.3-3.135,3.924,3.924,0,0,0-.845-.074h-.153c-2.467-.007-5.018-.014-7.525,0a4.083,4.083,0,0,0-3.749,2.161,3.959,3.959,0,0,0-.523,2.038q0,1.091-.006,2.181c-.006,1.847-.013,3.756.014,5.63a4.052,4.052,0,0,0,2.549,3.879,3.64,3.64,0,0,0,1.171.3C1770.517,108.712,1770.57,108.722,1770.624,108.733Zm3.995-.213q-1.815,0-3.63,0a3.916,3.916,0,0,1-3.823-2.705,4.394,4.394,0,0,1-.209-1.353c-.015-2.446-.011-4.892-.008-7.338v-.333a3.926,3.926,0,0,1,2.7-3.843,4.443,4.443,0,0,1,1.37-.212c2.305-.014,4.61-.011,6.916-.008h.736a3.933,3.933,0,0,1,3.85,2.684,4.087,4.087,0,0,1,.216,1.4v4.967q0,1.332,0,2.665a3.984,3.984,0,0,1-.743,2.41,3.894,3.894,0,0,1-3.29,1.661Q1776.664,108.519,1774.619,108.52Zm.417-14.456q-2,0-4.007.01a3.055,3.055,0,0,0-.95.143,2.587,2.587,0,0,0-1.787,2.571v.334c0,2.443-.007,4.885.008,7.328a3.044,3.044,0,0,0,.14.934,2.574,2.574,0,0,0,2.553,1.789q3.855.011,7.713,0a2.582,2.582,0,0,0,2.209-1.113,2.614,2.614,0,0,0,.483-1.614q0-1.333,0-2.667V96.815a2.842,2.842,0,0,0-.138-.956,2.609,2.609,0,0,0-2.588-1.792h-.735Z" fill="#ccc"/>
    </g>
    <g id="Group_561" data-name="Group 561">
      <path id="Path_1158" data-name="Path 1158" d="M1778.505,100.627a3.661,3.661,0,1,1-3.659-3.668A3.677,3.677,0,0,1,1778.505,100.627Zm-3.656-2.4a2.4,2.4,0,1,0,2.393,2.4A2.4,2.4,0,0,0,1774.849,98.222Z" fill="#ccc"/>
      <path id="Path_1159" data-name="Path 1159" d="M1774.856,104.45h-.022a3.825,3.825,0,0,1-2.718-1.15,3.772,3.772,0,0,1-1.1-2.693,3.846,3.846,0,0,1,3.826-3.815h.006a3.829,3.829,0,0,1,.009,7.658Zm-.015-7.323a3.508,3.508,0,0,0-3.49,3.482,3.439,3.439,0,0,0,1,2.456,3.5,3.5,0,0,0,2.481,1.05h.02a3.445,3.445,0,0,0,2.437-1.012,3.481,3.481,0,0,0,1.044-2.477h0a3.508,3.508,0,0,0-3.491-3.5Zm.01,6.06h-.013a2.565,2.565,0,0,1-1.8-4.386,2.529,2.529,0,0,1,1.8-.746h.013a2.565,2.565,0,0,1,1.8,4.386A2.531,2.531,0,0,1,1774.851,103.187Zm-.015-4.8a2.2,2.2,0,0,0-1.562.648,2.229,2.229,0,1,0,3.8,1.587,2.2,2.2,0,0,0-.648-1.575,2.234,2.234,0,0,0-1.579-.66h-.011Z" fill="#ccc"/>
    </g>
    <g id="Group_562" data-name="Group 562">
      <path id="Path_1160" data-name="Path 1160" d="M1779.072,95.233a1.278,1.278,0,1,1-1.282,1.268A1.288,1.288,0,0,1,1779.072,95.233Z" fill="#ccc"/>
    </g>
  </g>
</svg>
