<svg xmlns="http://www.w3.org/2000/svg" width="9.5" height="17.611" viewBox="0 0 9.5 17.611">
  <g id="Group_564" data-name="Group 564" transform="translate(-1746.7 -91.813)">
    <path id="Path_1161" data-name="Path 1161" d="M1749.352,101.754h-.256c-.631,0-1.263,0-1.894,0-.383,0-.495-.108-.5-.484q-.009-1.312,0-2.625c0-.378.118-.484.495-.485.632,0,1.263,0,1.894,0h.258c0-.1,0-.187,0-.271.015-.816-.015-1.637.054-2.45a3.869,3.869,0,0,1,3.8-3.6c.859-.033,1.72-.013,2.581-.011.287,0,.41.122.412.406q.008,1.281,0,2.561c0,.292-.12.408-.429.416-.581.014-1.162.015-1.742.023-.677.01-.943.264-.955.937-.011.638,0,1.275,0,1.937.087,0,.162.012.238.012.745,0,1.491,0,2.237,0,.461,0,.568.11.568.573q0,1.271,0,2.54c0,.4-.1.5-.494.5-.76,0-1.52,0-2.28,0h-.269v.284q0,3.378,0,6.757c0,.577-.078.654-.658.654H1750c-.575,0-.649-.073-.649-.638q0-3.378,0-6.756Z" fill="#ccc"/>
  </g>
</svg>
