<svg xmlns="http://www.w3.org/2000/svg" width="20.228" height="20.227" viewBox="0 0 20.228 20.227">
  <g id="Group_559" data-name="Group 559" transform="translate(-1791.457 -89.197)">
    <path id="Path_1153" data-name="Path 1153" d="M1798.608,109.424l0-13.231v-.265h4.025v1.877c.066-.082.1-.113.118-.148a4.253,4.253,0,0,1,3.166-2.019,6.379,6.379,0,0,1,2.468.137,3.849,3.849,0,0,1,2.9,2.83,9.481,9.481,0,0,1,.359,2.155c.007.11.025.219.038.329v8.335H1807.5c0-2.349,0-4.7-.009-7.048a8.657,8.657,0,0,0-.116-1.315,1.853,1.853,0,0,0-1.764-1.767,2.191,2.191,0,0,0-2.654,1.87,8.942,8.942,0,0,0-.149,1.626c-.017,2.211-.008,4.423-.009,6.634Z" fill="#ccc"/>
    <path id="Path_1154" data-name="Path 1154" d="M1791.774,109.424c.005-.091.015-.183.015-.274q0-6.468,0-12.937v-.284h4.2v13.22c0,.092.009.184.013.275Z" fill="#ccc"/>
    <path id="Path_1155" data-name="Path 1155" d="M1793.817,94.075a2.44,2.44,0,1,1,2.5-2.318A2.455,2.455,0,0,1,1793.817,94.075Z" fill="#ccc"/>
  </g>
</svg>
