<svg xmlns="http://www.w3.org/2000/svg" width="194.746" height="45.551" viewBox="0 0 194.746 45.551">
  <g id="Group_601" data-name="Group 601" transform="translate(-109.447 -78.864)">
    <g id="Group_567" data-name="Group 567">
      <g id="Group_566" data-name="Group 566">
        <path id="Path_1162" data-name="Path 1162" d="M163.065,78.865V96.1l-10.9-17.232h-7.132v24.822h4.177V81.567l14.166,22.12h3.869V78.865Z" fill="#fff"/>
      </g>
    </g>
    <g id="Group_570" data-name="Group 570">
      <g id="Group_569" data-name="Group 569">
        <g id="Group_568" data-name="Group 568">
          <path id="Path_1163" data-name="Path 1163" d="M163.065,110.664v12.482h4.178V110.664Zm-14.209,0h-3.825v12.482h4.177v-4.553l2.916,4.553h4.629Z" fill="#58595b"/>
        </g>
      </g>
    </g>
    <path id="Path_1164" data-name="Path 1164" d="M201.307,78.919H181.146a.529.529,0,0,0-.529.529V82.4a.53.53,0,0,0,.529.53h7.97V108.46a.529.529,0,0,0,.53.528h3.16a.529.529,0,0,0,.53-.528V82.931h7.971a.53.53,0,0,0,.529-.53V79.448A.529.529,0,0,0,201.307,78.919Z" fill="#fff"/>
    <g id="Group_573" data-name="Group 573">
      <g id="Group_572" data-name="Group 572">
        <g id="Group_571" data-name="Group 571">
          <path id="Path_1165" data-name="Path 1165" d="M189.116,114.345v8.707h4.22v-8.707Z" fill="#58595b"/>
        </g>
      </g>
    </g>
    <g id="Group_574" data-name="Group 574">
      <rect id="Rectangle_193" data-name="Rectangle 193" width="13.196" height="4.399" rx="0.428" transform="translate(113.846 114.06)" fill="#fff"/>
    </g>
    <g id="Group_575" data-name="Group 575">
      <path id="Path_1166" data-name="Path 1166" d="M113.418,87.664h-3.542c-.237,0-.429.287-.429.642v25.107c0,.355.192.643.429.643h3.542c.236,0,.428-.288.428-.643V88.306C113.846,87.951,113.654,87.664,113.418,87.664Z" fill="#fff"/>
    </g>
    <g id="Group_576" data-name="Group 576">
      <path id="Path_1167" data-name="Path 1167" d="M127.471,114.056h3.542c.236,0,.428-.288.428-.643V88.306c0-.355-.192-.642-.428-.642h-3.542c-.237,0-.429.287-.429.642v25.107C127.042,113.768,127.234,114.056,127.471,114.056Z" fill="#fff"/>
    </g>
    <g id="Group_577" data-name="Group 577">
      <rect id="Rectangle_194" data-name="Rectangle 194" width="13.196" height="4.399" rx="0.428" transform="translate(113.846 83.265)" fill="#fff"/>
    </g>
    <g id="Group_578" data-name="Group 578">
      <rect id="Rectangle_195" data-name="Rectangle 195" width="4.399" height="43.996" rx="0.428" transform="translate(136.588 78.864)" fill="#fff"/>
    </g>
    <g id="Group_579" data-name="Group 579">
      <rect id="Rectangle_196" data-name="Rectangle 196" width="4.399" height="43.996" rx="0.428" transform="translate(171.782 78.864)" fill="#fff"/>
    </g>
    <g id="Group_581" data-name="Group 581">
      <g id="Group_580" data-name="Group 580">
        <path id="Path_1168" data-name="Path 1168" d="M223.27,78.865v27.8h4.22v-27.8Z" fill="#fff"/>
      </g>
    </g>
    <g id="Group_584" data-name="Group 584">
      <g id="Group_583" data-name="Group 583">
        <g id="Group_582" data-name="Group 582">
          <path id="Path_1169" data-name="Path 1169" d="M223.27,117.614v5.532h4.22v-5.532Z" fill="#58595b"/>
        </g>
      </g>
    </g>
    <g id="Group_587" data-name="Group 587">
      <g id="Group_586" data-name="Group 586">
        <g id="Group_585" data-name="Group 585">
          <path id="Path_1170" data-name="Path 1170" d="M223.27,110.664v3.953h4.22v-3.953Z" fill="#58595b"/>
        </g>
      </g>
    </g>
    <g id="Group_588" data-name="Group 588">
      <rect id="Rectangle_197" data-name="Rectangle 197" width="13.196" height="4.399" rx="0.428" transform="translate(290.997 114.058)" fill="#fff"/>
    </g>
    <g id="Group_589" data-name="Group 589">
      <path id="Path_1171" data-name="Path 1171" d="M290.267,87.661h-3.542c-.236,0-.428.288-.428.643v25.107c0,.355.192.643.428.643h3.542c.237,0,.428-.288.428-.643V88.3C290.7,87.949,290.5,87.661,290.267,87.661Z" fill="#fff"/>
    </g>
    <g id="Group_590" data-name="Group 590">
      <rect id="Rectangle_198" data-name="Rectangle 198" width="13.196" height="4.399" rx="0.428" transform="translate(290.997 83.263)" fill="#fff"/>
    </g>
    <g id="Group_591" data-name="Group 591">
      <path id="Path_1172" data-name="Path 1172" d="M303.116,98.658h-9.549a.389.389,0,0,0-.331.428v3.543a.389.389,0,0,0,.331.428h9.549a.389.389,0,0,0,.331-.428V99.086A.389.389,0,0,0,303.116,98.658Z" fill="#fff"/>
    </g>
    <g id="Group_592" data-name="Group 592">
      <rect id="Rectangle_199" data-name="Rectangle 199" width="4.399" height="43.996" rx="0.428" transform="translate(206.208 78.864)" fill="#fff"/>
    </g>
    <g id="Group_593" data-name="Group 593">
      <rect id="Rectangle_200" data-name="Rectangle 200" width="4.399" height="43.996" rx="0.428" transform="translate(241.402 78.864)" fill="#fff"/>
    </g>
    <g id="Group_594" data-name="Group 594">
      <rect id="Rectangle_201" data-name="Rectangle 201" width="4.399" height="43.996" rx="0.428" transform="translate(276.596 78.864)" fill="#fff"/>
    </g>
    <g id="Group_595" data-name="Group 595">
      <path id="Path_1173" data-name="Path 1173" d="M258.09,121.3l3.11,3.11,3.11-3.11Z" fill="#58595b"/>
    </g>
    <g id="Group_596" data-name="Group 596">
      <rect id="Rectangle_202" data-name="Rectangle 202" width="4.399" height="13.2" rx="0.428" transform="translate(250.199 109.946)" fill="#58595b"/>
    </g>
    <g id="Group_597" data-name="Group 597">
      <rect id="Rectangle_203" data-name="Rectangle 203" width="4.399" height="13.2" rx="0.428" transform="translate(267.799 109.946)" fill="#58595b"/>
    </g>
    <g id="Group_598" data-name="Group 598">
      <rect id="Rectangle_204" data-name="Rectangle 204" width="4.399" height="21.998" rx="0.428" transform="translate(267.799 79.15)" fill="#fff"/>
    </g>
    <g id="Group_599" data-name="Group 599">
      <path id="Path_1174" data-name="Path 1174" d="M258.09,88.594l3.11,3.11,3.11-3.11Z" fill="#fff"/>
    </g>
    <g id="Group_600" data-name="Group 600">
      <rect id="Rectangle_205" data-name="Rectangle 205" width="4.399" height="21.998" rx="0.428" transform="translate(250.199 79.15)" fill="#fff"/>
    </g>
  </g>
</svg>
