<svg xmlns="http://www.w3.org/2000/svg" width="118.615" height="35.363" viewBox="0 0 118.615 35.363">
  <g id="Group_608" data-name="Group 608" transform="translate(-1276.472 -977.403)">
    <path id="Path_1241" data-name="Path 1241" d="M1276.472,995.162a17.844,17.844,0,0,1,27.2-15.115,1.592,1.592,0,0,1,.816,2.258,36.79,36.79,0,0,1-23.059,22.837,1.674,1.674,0,0,1-2.42-.857A18.036,18.036,0,0,1,1276.472,995.162Z" fill="#4f4f4f"/>
    <path id="Path_1242" data-name="Path 1242" d="M1280.626,1006.479a133.223,133.223,0,0,1,13.563-3.413,41.782,41.782,0,0,0,6.523-1.894c5.627-2.333,9.1-6.164,8.861-12.6a6.573,6.573,0,0,1,.115-.987c2.038,1.432,2.888,6.749,1.911,11.414a17.483,17.483,0,0,1-14.042,13.437C1290.969,1013.606,1285.348,1011.667,1280.626,1006.479Z" fill="#727272"/>
    <path id="Path_1243" data-name="Path 1243" d="M1372.545,990.894a8.232,8.232,0,0,0-9.074-3.873,8.01,8.01,0,0,0-6.228,7.178c-.354,4.376-.109,8.769-.169,13.153-.016.938.25,1.489,1.345,1.5s1.582-.382,1.554-1.505c-.045-1.844-.013-3.692-.013-5.874,1.023.539,1.591.874,2.187,1.151a8,8,0,0,0,9.5-1.868A8.592,8.592,0,0,0,1372.545,990.894Zm-7.009,9.787a5.237,5.237,0,0,1-5.463-5.37,5.514,5.514,0,0,1,5.23-5.7,5.359,5.359,0,0,1,5.314,5.564A5.155,5.155,0,0,1,1365.536,1000.681Z" fill="#535353"/>
    <path id="Path_1244" data-name="Path 1244" d="M1335,990.934a8.266,8.266,0,0,0-9.235-3.888,7.962,7.962,0,0,0-6.1,7.657c.305,3.82.072,7.649.128,11.469.041,2.512.008,2.512,2.541,2.114.257-2.186-.194-4.421.273-6.667,4.876,2.492,8.551,2.242,11.293-.672A8.706,8.706,0,0,0,1335,990.934Zm-7.166,9.747a5.38,5.38,0,0,1-5.411-5.491,5.6,5.6,0,0,1,5.415-5.58,5.53,5.53,0,0,1,5.274,5.684A5.261,5.261,0,0,1,1327.835,1000.681Z" fill="#525252"/>
    <path id="Path_1245" data-name="Path 1245" d="M1354.707,994.083a8.266,8.266,0,0,0-8.571-7.3c-4.529.35-7.717,3.812-7.7,9.537a7.408,7.408,0,0,0,4.682,6.312,8.391,8.391,0,0,0,9.182-1.256c.475-.378,1.329-.813.866-1.57a2.439,2.439,0,0,0-2.061-1.038c-.439,0-.882.523-1.313.821a5.242,5.242,0,0,1-7.608-1.176c-.7-1-.576-1.558.708-1.727a17.409,17.409,0,0,1,4.388.141,12.711,12.711,0,0,0,6.281-.777A1.567,1.567,0,0,0,1354.707,994.083Zm-3.724-.089a11.158,11.158,0,0,1-2.778.258c-2.029-.032-4.058-.62-6.1,0-.785.237-.885-.246-.728-.9.45-1.9,2.946-3.74,5.161-3.784,1.972-.036,4.549,1.662,5.088,3.317C1351.845,993.551,1351.659,993.829,1350.983,993.994Z" fill="#525252"/>
    <path id="Path_1246" data-name="Path 1246" d="M1382.408,1003.465a9.269,9.269,0,0,1-5.639-1.811c-.494-.386-1.642-.7-.824-1.607.631-.7,1.354-1.756,2.642-.649a5.347,5.347,0,0,0,4.112,1.243c1.246-.123,2.534-.42,2.717-1.871.2-1.591-1.1-1.891-2.332-2.165a17.608,17.608,0,0,1-4.425-1.218,4.185,4.185,0,0,1-.668-7.34c2.345-1.8,6.983-1.642,9.224.3.456.394.815.766.268,1.3-.6.581-1.149,1.479-2.178.795a5.46,5.46,0,0,0-4-.9c-1.056.166-2.012.642-2.17,1.768-.173,1.235.854,1.738,1.82,2.042,1.142.36,2.337.55,3.5.831,2.73.658,4.146,2.158,4.154,4.382.009,2.243-1.586,3.981-4.249,4.588C1383.65,1003.306,1382.917,1003.384,1382.408,1003.465Z" fill="#525252"/>
    <path id="Path_1247" data-name="Path 1247" d="M1394.552,1002.66c-2.323.821-2.756.57-2.752-1.675.008-4.368.043-8.737.067-13.1,2.536-.4,2.508-.4,2.545,2.11C1394.476,994.213,1394.226,998.44,1394.552,1002.66Z" fill="#525252"/>
    <path id="Path_1248" data-name="Path 1248" d="M1393.305,985.811c-1.081-.163-1.888-.682-1.912-1.875a1.732,1.732,0,0,1,1.879-1.871,1.672,1.672,0,0,1,1.81,1.718C1395.148,984.991,1394.443,985.582,1393.305,985.811Z" fill="#555"/>
    <path id="Path_1249" data-name="Path 1249" d="M1394.552,1002.66c-.721-2.413-.221-4.884-.332-7.325a50.623,50.623,0,0,1,.005-5.183c.1-1.762-.66-2.455-2.358-2.272,2.188-1.017,2.788-.719,2.781,1.45C1394.634,993.773,1394.586,998.217,1394.552,1002.66Z" fill="#434343"/>
    <path id="Path_1250" data-name="Path 1250" d="M1319.661,994.7c.738,3.684.233,7.406.3,11.109.032,1.722.454,2.713,2.369,2.471-2.113,1.079-2.788.752-2.78-1.416C1319.567,1002.813,1319.623,998.759,1319.661,994.7Z" fill="#444"/>
  </g>
</svg>
