<svg xmlns="http://www.w3.org/2000/svg" width="124.074" height="38.439" viewBox="0 0 124.074 38.439">
  <g id="Group_611" data-name="Group 611" transform="translate(-1459.847 -973.917)">
    <path id="Path_1293" data-name="Path 1293" d="M1493.517,1011.426a1.191,1.191,0,0,1-1.28.924q-10.365-.013-20.732.006a.937.937,0,0,1-.843-.33c.342-.812,1.089-.729,1.757-.747,1.846-.052,3.692.009,5.538-.031,1.522-.033,1.7-.357,1.031-1.678-.735-1.452-1.665-2.8-2.4-4.247-.332-.659-.951-1.335-.271-2.142l12.033.036a6.814,6.814,0,0,1,2.513,3.106C1491.794,1008,1493.035,1009.519,1493.517,1011.426Z" fill="#575757"/>
    <path id="Path_1294" data-name="Path 1294" d="M1469.93,992.529c2.137,3.391,4.179,6.837,6.057,10.378a1.157,1.157,0,0,1-1.235.991c-2.985.045-5.982.43-8.941-.3a101.339,101.339,0,0,1-5.964-10.46,1.871,1.871,0,0,1,1.524-.939C1464.231,992.059,1467.107,991.676,1469.93,992.529Z" fill="#575757"/>
    <path id="Path_1295" data-name="Path 1295" d="M1470.626,974.262a3.378,3.378,0,0,1,1.991-.328c6.265,0,12.529.026,18.793-.017a2.633,2.633,0,0,1,2.682,1.453c1.522,2.8,3.14,5.553,4.72,8.324a2,2,0,0,1-1.159.41q-3.987.129-7.974,0c-.584-.017-1.078-.343-1.642-.413-1.419-.551-2.9-.273-4.353-.3-2.563-.047-5.127-.021-7.691-.026-.061-1.176.88-1,1.537-1.037,1.995-.106,3.995-.021,5.993-.05,2.033-.03,2.321-.5,1.346-2.2-.649-1.135-1.317-2.26-1.971-3.392a3.137,3.137,0,0,0-2.984-1.668q-3.312.035-6.625-.005A3.864,3.864,0,0,1,1470.626,974.262Z" fill="#eaeaea"/>
    <path id="Path_1296" data-name="Path 1296" d="M1488.037,983.7a6.64,6.64,0,0,1,3.41-.3c2.455.078,4.934-.356,7.365.3q2.4,4.116,4.8,8.23c.342.585.784,1.147.311,1.863-2.827.78-5.705.392-8.567.364a3.505,3.505,0,0,1-1.569-.661Z" fill="#d6d6d6"/>
    <path id="Path_1297" data-name="Path 1297" d="M1470.626,974.262c3.364-.005,6.729.034,10.092-.038a2.507,2.507,0,0,1,2.6,1.549c.929,1.81,2.072,3.511,3.071,5.288,1.1,1.967,1.069,2-1.139,2.007-2.418.005-4.836,0-7.254,0a3.83,3.83,0,0,0-2,.3c-2.974.008-5.948.033-8.922,0-.467,0-1.244.334-1.263-.643,2.1-.723,4.282-.359,6.429-.438,1.766-.066,1.953-.4,1.078-1.966-.564-1.01-1.1-2.037-1.75-2.993a5.349,5.349,0,0,1-.953-2.767C1470.613,974.466,1470.618,974.364,1470.626,974.262Z" fill="#d6d6d6"/>
    <path id="Path_1298" data-name="Path 1298" d="M1517.518,1001.337a9.62,9.62,0,0,1-5.286-1.266c-.665-.373-.886-.712-.468-1.48,1.092-2.005,1.05-2.024,3.18-1.045a4.456,4.456,0,0,0,2.443.525,1.384,1.384,0,0,0,1.337-.929,1.333,1.333,0,0,0-.625-1.633c-.815-.48-1.67-.894-2.521-1.309-2.315-1.128-3.213-2.622-2.806-4.711a4.782,4.782,0,0,1,4.324-3.572,7.815,7.815,0,0,1,3.123.374c2.32.7,2.486,1.337.973,3.274-.393.5-.677.3-1.056.118a4.632,4.632,0,0,0-2.594-.557c-.589.072-1.153.281-1.29.969-.143.714.327,1.048.885,1.306.956.443,1.938.837,2.868,1.33,2.279,1.21,3.022,2.6,2.657,4.822-.322,1.963-1.861,3.334-4.178,3.7A9,9,0,0,1,1517.518,1001.337Z" fill="#464646"/>
    <path id="Path_1299" data-name="Path 1299" d="M1465.811,1003.6a4.37,4.37,0,0,1,2.458-.384c2.571-.151,5.167.345,7.718-.308l.334.274c1.424,2.5,2.807,5.035,4.293,7.5.651,1.082.373,1.359-.774,1.35-3.059-.024-6.119-.008-9.178-.008Z" fill="#464646"/>
    <path id="Path_1300" data-name="Path 1300" d="M1583.356,992.488c-.94.966-1.827,1.992-2.836,2.88-.847.745-.987,1.242-.022,2.035a41.57,41.57,0,0,1,2.971,2.952c-1.144.937-2.438.412-3.682.377l-3.055-2.65a1.355,1.355,0,0,0-.243,1.279c.225,1.425-.383,1.759-1.746,1.736-1.274-.022-1.745-.319-1.718-1.665.082-4.138.1-8.281-.005-12.418-.038-1.556.794-1.445,1.862-1.492,1.187-.052,1.677.234,1.62,1.537-.108,2.455-.031,4.918-.031,7.536,1.509-.606,2.116-2.142,3.47-2.69a7.489,7.489,0,0,0,2.19.133C1582.581,992.079,1583.114,991.892,1583.356,992.488Z" fill="#474747"/>
    <path id="Path_1301" data-name="Path 1301" d="M1550.614,992.494a6.461,6.461,0,0,1,3.492-.9,2.8,2.8,0,0,1,2.931,1.937,14.612,14.612,0,0,1,.06,7.438c-2.674-.3-2.668-.3-2.678-3.158a17.632,17.632,0,0,0,0-1.976,36.553,36.553,0,0,1-.146,5.1c-.522-1.519-.169-3.084-.227-4.625-.044-1.17-.267-2.143-1.666-2.156s-1.682.942-1.729,2.116c-.061,1.551.228,3.117-.186,4.653-.355-.806-.046-1.654-.158-2.349,0,.149,0,.423,0,.7a1.616,1.616,0,0,1-2.441,1.562c-.462-.19-.407-.557-.407-.913-.006-4.4.024-8.8-.023-13.2-.011-1.1.636-1.016,1.333-.971.72.046,1.662-.334,1.7.986A38.88,38.88,0,0,0,1550.614,992.494Z" fill="#464646"/>
    <path id="Path_1302" data-name="Path 1302" d="M1563.124,991.917c.661,1.49.15,3.058.306,4.582.081.789.08,1.593.984,1.96a1.7,1.7,0,0,0,2.479-1.518c.111-1.191.025-2.4.079-3.6.021-.485-.243-1.053.293-1.443a1.253,1.253,0,0,0,.442.132c2.4.122,2.4.123,2.4,2.445q0,2-.037,4a3.581,3.581,0,0,1-.185.748c-.87,1.787-3.076,2.495-6.275,2.032-2.115-.306-3.054-1.161-3.364-3.063a41.215,41.215,0,0,0,.014-4.487c-.05-1.228.265-1.883,1.636-1.686A2.032,2.032,0,0,0,1563.124,991.917Z" fill="#464646"/>
    <path id="Path_1303" data-name="Path 1303" d="M1537.148,996.464c.068-3.057,1.515-4.467,4.584-4.653.714-.043,1.414-.39,2.133-.057.513.237,1.479.163,1.139,1.111-.262.728-.3,1.876-1.725,1.444a2.027,2.027,0,0,0-2.441,1,2.163,2.163,0,0,0,2.466,3.191c1.426-.381,1.439.823,1.7,1.522.338.9-.6.941-1.151,1.1C1540.357,1002.13,1537.072,999.834,1537.148,996.464Z" fill="#474747"/>
    <path id="Path_1304" data-name="Path 1304" d="M1493.784,993.49l8.628-.032a2.6,2.6,0,0,1,1.508.329c-1.424,2.452-2.864,4.9-4.265,7.36-.542.954-.9.96-1.452-.024C1496.77,998.557,1495.262,996.032,1493.784,993.49Z" fill="#acacac"/>
    <path id="Path_1305" data-name="Path 1305" d="M1469.93,992.529c-2.257.617-4.562.164-6.841.3a8.917,8.917,0,0,0-3.242.314c1.5-3.035,3.349-5.866,5.225-9.113Z" fill="#656565"/>
    <path id="Path_1306" data-name="Path 1306" d="M1470.612,974.567c1.929,2.292,3.083,5.059,4.686,7.552.279.435.122.9-.439.892-3.018-.054-6.055.462-9.05-.28Z" fill="#acacac"/>
    <path id="Path_1307" data-name="Path 1307" d="M1493.517,1011.426c-.294-.205-.7-.346-.866-.627a67,67,0,0,1-4.3-7.582c2.9-.025,5.791-.04,8.685-.082.926-.014,1.324.221.758,1.156C1496.363,1006.665,1494.943,1009.047,1493.517,1011.426Z" fill="#656565"/>
    <path id="Path_1308" data-name="Path 1308" d="M1531.777,1000.98c-.4-.135-.346-.486-.345-.782q.018-7.152.052-14.3c3.09-.5,3.134-.463,3.134,2.542q0,5.181,0,10.361c0,2-.006,2.005-2.071,2.056A1.672,1.672,0,0,0,1531.777,1000.98Z" fill="#464646"/>
    <path id="Path_1309" data-name="Path 1309" d="M1550.614,992.494c-.661-.7-.438-1.574-.464-2.392-.031-.992-.011-1.986-.023-2.979-.01-.846-.46-1.219-1.3-1.2-.769.016-1.19.379-1.192,1.144q-.014,6.194-.008,12.388c0,.837.431,1.231,1.281,1.223.874-.009,1.223-.472,1.224-1.283a11.169,11.169,0,0,1,.329-3.283v4.812c-3.2.4-3.2.4-3.2-2.741,0-3.758.064-7.518-.033-11.274-.034-1.339.6-1.43,1.607-1.364.906.059,1.943-.272,1.84,1.314C1550.554,988.73,1550.626,990.615,1550.614,992.494Z" fill="#434343"/>
    <path id="Path_1310" data-name="Path 1310" d="M1526.689,986a1.908,1.908,0,0,1,1.963,2.082,1.823,1.823,0,0,1-1.992,1.777,1.881,1.881,0,0,1-1.857-2.066A1.86,1.86,0,0,1,1526.689,986Z" fill="#494949"/>
    <path id="Path_1311" data-name="Path 1311" d="M1531.777,1000.98a6.463,6.463,0,0,1,1.219-.272c.946-.029,1.3-.513,1.3-1.4-.008-3.982-.015-7.964.007-11.945.006-1.09-.51-1.517-1.554-1.464-.42.021-.843,0-1.265-.005.891-.668,1.9-.294,2.853-.274.561.011.463.617.464,1.011.01,4.454-.007,8.908.017,13.362.005.845-.36,1.112-1.147,1.049C1533.042,1000.993,1532.408,1001,1531.777,1000.98Z" fill="#3b3b3b"/>
    <path id="Path_1312" data-name="Path 1312" d="M1570.072,998.482a6.927,6.927,0,0,1-.271-3.069c-.028-2.753-.01-2.754-2.536-3.512,3.047-.225,3.07-.224,3.037,2.686A12.2,12.2,0,0,1,1570.072,998.482Z" fill="#3a3a3a"/>
    <path id="Path_1313" data-name="Path 1313" d="M1563.124,991.917a3.018,3.018,0,0,1-.9.247c-1.378-.066-1.629.7-1.649,1.875-.024,1.387.34,2.82-.329,4.16a31.043,31.043,0,0,1-.18-5.562c-.021-.607.319-.823.878-.8Z" fill="#3a3a3a"/>
    <path id="Path_1314" data-name="Path 1314" d="M1525.427,1000.982c-.611-.348-.317-.934-.326-1.4-.037-1.979.1-3.968-.052-5.936-.123-1.59.493-2.07,1.937-1.8.453.084,1.071-.363,1.343.372-.13.1-.264.207-.4.3a2.937,2.937,0,0,0-1.742,3.021c-.032,1.692.377,3.436-.423,5.068A3.236,3.236,0,0,1,1525.427,1000.982Z" fill="#343434"/>
    <path id="Path_1315" data-name="Path 1315" d="M1525.427,1000.982c0-.1.005-.193.007-.29,1.492-1.031,1.8-2.488,1.788-4.211-.013-1.437-.558-3.04.737-4.28l.37.014c.028,2.484.014,4.97.1,7.452.039,1.1-.371,1.509-1.445,1.379C1526.472,1000.984,1525.948,1001,1525.427,1000.982Z" fill="#3b3b3b"/>
    <path id="Path_1316" data-name="Path 1316" d="M1554.269,1000.935v-4.81l.313-.015c0,.866.05,1.736-.012,2.6-.094,1.309.272,2.133,1.785,2.037a2.3,2.3,0,0,1,.742.221A9.542,9.542,0,0,1,1554.269,1000.935Z" fill="#3b3b3b"/>
    <path id="Path_1317" data-name="Path 1317" d="M1583.356,992.488c-1.076-.554-2.343,0-3.415-.583,1.087-.025,2.174-.078,3.261-.066C1583.948,991.848,1583.892,992.133,1583.356,992.488Z" fill="#3b3b3b"/>
    <path id="Path_1318" data-name="Path 1318" d="M1579.787,1000.732c1.228-.113,2.5.16,3.682-.377.223.188.829.551.114.607C1582.331,1001.061,1581.014,1001.356,1579.787,1000.732Z" fill="#3d3d3d"/>
    <path id="Path_1319" data-name="Path 1319" d="M1527.959,992.2q0,2.982,0,5.966c0,2.524,0,2.524-2.529,2.525q0-2.984-.005-5.968C1525.431,992.2,1525.433,992.2,1527.959,992.2Z" fill="#464646"/>
  </g>
</svg>
