<svg xmlns="http://www.w3.org/2000/svg" width="37.426" height="44.684" viewBox="0 0 37.426 44.684">
  <g id="Group_607" data-name="Group 607" transform="translate(-883.355 -971.055)">
    <path id="Path_1233" data-name="Path 1233" d="M920.766,975.179v22.6a14.353,14.353,0,0,1-.1,2.01,13.867,13.867,0,0,1-1.059,3.733,13.407,13.407,0,0,1-2.068,3.289,13.659,13.659,0,0,1-3.007,2.636c-1,.643-2.036,1.233-3.08,1.8-1.217.663-2.459,1.284-3.7,1.895q-2.161,1.056-4.354,2.041c-.381.172-.762.339-1.138.512a.421.421,0,0,1-.386-.011q-2.13-.948-4.234-1.942c-1.133-.538-2.271-1.081-3.388-1.655-1.53-.788-3.054-1.6-4.521-2.506a13.126,13.126,0,0,1-2.736-2.245,13.56,13.56,0,0,1-3.164-5.758,13.884,13.884,0,0,1-.381-1.942,9.786,9.786,0,0,1-.057-1.175.268.268,0,0,0-.005-.063v-.026a3.879,3.879,0,0,0-.021-.417c.005-.006,0-.006,0-.011s-.006-.031-.006-.047V975.142c.162-.083.324-.161.486-.245a31.575,31.575,0,0,1,6.4-2.4,42.446,42.446,0,0,1,4.762-.96c1.023-.152,2.046-.261,3.075-.345.825-.068,1.649-.109,2.474-.135a1.327,1.327,0,0,0,.141.005h2.48c.146,0,.292-.005.433-.005.434.02.862.036,1.3.057,1.237.063,2.469.183,3.7.35a42.707,42.707,0,0,1,5.554,1.1,31.554,31.554,0,0,1,6.156,2.339,3.219,3.219,0,0,1,.433.245h.01v.011C920.766,975.158,920.766,975.168,920.766,975.179Z" fill="#8e8e8e"/>
    <path id="Path_1234" data-name="Path 1234" d="M920.781,975.142c-.005.016-.015.021-.021.011s-.005-.005-.01-.011h.031Z" fill="#fff"/>
    <path id="Path_1235" data-name="Path 1235" d="M883.414,998.492l-.059-.218V997.9A2,2,0,0,1,883.414,998.492Z" fill="#d8d8d8"/>
    <path id="Path_1236" data-name="Path 1236" d="M919.25,987.087q0,5.1,0,10.208a14.584,14.584,0,0,1-.561,4.139,11.713,11.713,0,0,1-3.108,5.2,12.592,12.592,0,0,1-2.107,1.622c-1.2.756-2.448,1.431-3.708,2.08-2.467,1.269-4.978,2.444-7.514,3.567a.379.379,0,0,1-.338.009c-2.652-1.169-5.281-2.386-7.854-3.723-1.157-.6-2.3-1.231-3.4-1.929a12.391,12.391,0,0,1-3.283-2.954,11.894,11.894,0,0,1-2.185-4.9,15.825,15.825,0,0,1-.3-3.206q0-6.21,0-12.421a.5.5,0,0,1,.178-.4,33.259,33.259,0,0,1,10.164-6.365,38.161,38.161,0,0,1,6.87-2q1.8-.349,3.617-.549c.955-.107,1.912-.182,2.871-.236,1.416-.08,2.833-.1,4.251-.081q1.759.025,3.517.141,1.3.082,2.593.2c.347.032.3.015.3.329Q919.251,981.452,919.25,987.087Z" fill="#4f4f4f"/>
    <path id="Path_1237" data-name="Path 1237" d="M898.184,997.247q0-5.227,0-10.457c0-.286-.039-.24.234-.395a7.567,7.567,0,0,1,2.718-.9,10.144,10.144,0,0,1,1.834-.091,5.329,5.329,0,0,1,4.729,2.948,8.155,8.155,0,0,1,.818,2.475,13.728,13.728,0,0,1-.148,5.462,7.869,7.869,0,0,1-1.141,2.68,5.076,5.076,0,0,1-2.348,1.928,5.262,5.262,0,0,1-2.028.354,5.577,5.577,0,0,1-1.312-.146c-.1-.027-.122-.011-.131.09,0,.062,0,.124,0,.187v6.312c0,.067,0,.135-.005.2a.092.092,0,0,1-.1.1c-.046,0-.093,0-.14,0h-2.741c-.238,0-.238,0-.238-.243Q898.184,1002.5,898.184,997.247Z" fill="#8f8f8f"/>
    <path id="Path_1238" data-name="Path 1238" d="M896.38,992.772q0,3.452,0,6.9c0,.269.036.229-.209.384a7.5,7.5,0,0,1-2.559.985,10.651,10.651,0,0,1-2.743.185,5.55,5.55,0,0,1-1.375-.254,3.9,3.9,0,0,1-2.555-2.418,6.506,6.506,0,0,1-.4-1.914c-.025-.342-.029-.685-.029-1.028q0-4.871,0-9.742c0-.315-.009-.289.287-.29h2.773c.271,0,.266-.017.266.263q0,5.081,0,10.162a4.564,4.564,0,0,0,.093,1.037,2.529,2.529,0,0,0,.146.444,1.432,1.432,0,0,0,1.248.9,3.382,3.382,0,0,0,1.129-.082,1.975,1.975,0,0,0,.461-.186.234.234,0,0,0,.146-.248c-.006-.067,0-.135,0-.2q0-5.883,0-11.767c0-.068,0-.136,0-.2s.037-.117.115-.115l.109,0h2.867c.229,0,.23,0,.23.236Z" fill="#8f8f8f"/>
    <path id="Path_1239" data-name="Path 1239" d="M909.6,997.222c.067.007.1.057.146.092a5.375,5.375,0,0,0,2.383,1.129,2.893,2.893,0,0,0,1.312-.039,1.618,1.618,0,0,0,1.253-1.668,1.958,1.958,0,0,0-.413-1.188,3.351,3.351,0,0,0-.677-.663,11.229,11.229,0,0,0-1.146-.75,10.352,10.352,0,0,1-1.446-1,4.948,4.948,0,0,1-1.181-1.4,4.672,4.672,0,0,1-.524-1.925,3.89,3.89,0,0,1,.667-2.527,4.415,4.415,0,0,1,2.024-1.6,5.471,5.471,0,0,1,2.364-.388,5.38,5.38,0,0,1,2.386.637,4.631,4.631,0,0,1,.485.31.261.261,0,0,1,.123.234c0,.841,0,1.683,0,2.525a.178.178,0,0,1-.026.127c-.06,0-.092-.057-.132-.092a4.923,4.923,0,0,0-1.653-.976,3.371,3.371,0,0,0-1.176-.2,2.287,2.287,0,0,0-.949.22,1.558,1.558,0,0,0-.659,2.271,2.256,2.256,0,0,0,.477.531,7.442,7.442,0,0,0,.857.595c.426.267.866.514,1.284.8a7.458,7.458,0,0,1,1.549,1.342,4.113,4.113,0,0,1,.993,2.487,5.86,5.86,0,0,1-.118,1.8,4.17,4.17,0,0,1-3.166,3.17,5.948,5.948,0,0,1-3.379-.135,9.881,9.881,0,0,1-1.547-.657.23.23,0,0,1-.14-.232c0-.9,0-1.8,0-2.7A.18.18,0,0,1,909.6,997.222Z" fill="#8f8f8f"/>
    <path id="Path_1240" data-name="Path 1240" d="M901.312,993.193v-4.738c0-.047,0-.093,0-.14,0-.141,0-.14.136-.183a4.032,4.032,0,0,1,.883-.248,2.085,2.085,0,0,1,2.1.931,3.817,3.817,0,0,1,.486,1.192,9.763,9.763,0,0,1,.246,1.709c.045.649.049,1.3.031,1.947a10.406,10.406,0,0,1-.311,2.421,4.715,4.715,0,0,1-.37.974,2.942,2.942,0,0,1-.433.627,2.17,2.17,0,0,1-1.481.708,2.959,2.959,0,0,1-1.079-.1c-.2-.06-.209-.068-.209-.282Z" fill="#4f4f4f"/>
  </g>
</svg>
