<svg xmlns="http://www.w3.org/2000/svg" width="25.742" height="38.613" viewBox="0 0 25.742 38.613">
  <g id="Group_61" data-name="Group 61" transform="translate(-947.129 -2478.726)">
    <path id="Path_34" data-name="Path 34" d="M958.391,2515.73v-35.4a1.609,1.609,0,0,1,1.609-1.609h0a1.609,1.609,0,0,1,1.609,1.609v35.4a1.609,1.609,0,0,1-1.609,1.609h0A1.609,1.609,0,0,1,958.391,2515.73Z" fill="#f15a24"/>
    <path id="Path_35" data-name="Path 35" d="M947.129,2515.73v-35.4a1.608,1.608,0,0,1,1.609-1.609h0a1.609,1.609,0,0,1,1.609,1.609v35.4a1.61,1.61,0,0,1-1.609,1.609h0A1.609,1.609,0,0,1,947.129,2515.73Z" fill="#f15a24"/>
    <path id="Path_36" data-name="Path 36" d="M969.653,2515.73v-35.4a1.609,1.609,0,0,1,1.609-1.609h0a1.608,1.608,0,0,1,1.609,1.609v35.4a1.609,1.609,0,0,1-1.609,1.609h0A1.61,1.61,0,0,1,969.653,2515.73Z" fill="#f15a24"/>
  </g>
</svg>
